{"asset":{"version":"2.0","generator":"babylon.js glTF exporter for maya 2018 v20190722.2"},"scene":0,"scenes":[{"nodes":[0],"extensions":{}}],"nodes":[{"children":[1],"translation":[0.0,0.0,0.0],"rotation":[0.0,0.0,0.0,1.0],"scale":[20.0,20.0,20.0],"name":"root"},{"children":[2,3,4,5,6,7,8,9,10,11,12,13,14,15,16,17,18,19,20,21,22,23,24,25,26,27,28,29,30,31,32,33],"translation":[0.0,0.0,0.0],"rotation":[0.0,0.0,0.0,1.0],"scale":[1.0,1.0,1.0],"name":"Flares"},{"translation":[21.4470043,0.0,-26.9776974],"rotation":[0.0,0.0,0.0,1.0],"scale":[1.0,1.0,1.0],"name":"locator15"},{"translation":[17.81233,0.0,-26.9776974],"rotation":[0.0,0.0,0.0,1.0],"scale":[1.0,1.0,1.0],"name":"locator14"},{"translation":[14.1776552,0.0,-26.9776974],"rotation":[0.0,0.0,0.0,1.0],"scale":[1.0,1.0,1.0],"name":"locator13"},{"translation":[10.54298,0.0,-26.9776974],"rotation":[0.0,0.0,0.0,1.0],"scale":[1.0,1.0,1.0],"name":"locator12"},{"translation":[6.908305,0.0,-26.9776974],"rotation":[0.0,0.0,0.0,1.0],"scale":[1.0,1.0,1.0],"name":"locator11"},{"translation":[3.27363014,0.0,-26.9776974],"rotation":[0.0,0.0,0.0,1.0],"scale":[1.0,1.0,1.0],"name":"locator10"},{"translation":[-0.361044854,0.0,-26.9776974],"rotation":[0.0,0.0,0.0,1.0],"scale":[1.0,1.0,1.0],"name":"locator9"},{"translation":[-3.99572,0.0,-26.9776974],"rotation":[0.0,0.0,0.0,1.0],"scale":[1.0,1.0,1.0],"name":"locator8"},{"translation":[-7.630395,0.0,-26.9776974],"rotation":[0.0,0.0,0.0,1.0],"scale":[1.0,1.0,1.0],"name":"locator7"},{"translation":[-11.26507,0.0,-26.9776974],"rotation":[0.0,0.0,0.0,1.0],"scale":[1.0,1.0,1.0],"name":"locator6"},{"translation":[-14.899745,0.0,-26.9776974],"rotation":[0.0,0.0,0.0,1.0],"scale":[1.0,1.0,1.0],"name":"locator5"},{"translation":[-18.53442,0.0,-26.9776974],"rotation":[0.0,0.0,0.0,1.0],"scale":[1.0,1.0,1.0],"name":"locator4"},{"translation":[-22.1690941,0.0,-26.9776974],"rotation":[0.0,0.0,0.0,1.0],"scale":[1.0,1.0,1.0],"name":"locator3"},{"translation":[-25.80377,0.0,-26.9776974],"rotation":[0.0,0.0,0.0,1.0],"scale":[1.0,1.0,1.0],"name":"locator2"},{"translation":[-29.4384441,0.0,-26.9776974],"rotation":[0.0,0.0,0.0,1.0],"scale":[1.0,1.0,1.0],"name":"locator1"},{"translation":[-33.07312,0.0,-26.9776974],"rotation":[0.0,0.0,0.0,1.0],"scale":[1.0,1.0,1.0],"name":"locator0"},{"mesh":0,"translation":[-13.66543,2.50922942,-6.185146],"rotation":[0.707106769,0.0,0.0,0.707106769],"scale":[0.3,0.3,0.3],"name":"flare_0"},{"mesh":1,"translation":[-6.808913,2.50922942,-14.058403],"rotation":[0.707106769,0.0,0.0,0.707106769],"scale":[0.3,0.3,0.3],"name":"flare_1"},{"mesh":2,"translation":[6.597489,2.50922942,-14.576458],"rotation":[0.707106769,0.0,0.0,0.707106769],"scale":[0.3,0.3,0.3],"name":"flare_2"},{"mesh":3,"translation":[13.852232,2.50922942,-6.353399],"rotation":[0.707106769,0.0,0.0,0.707106769],"scale":[0.3,0.3,0.3],"name":"flare_3"},{"mesh":4,"translation":[13.2863226,2.50922942,4.948117],"rotation":[0.707106769,0.0,0.0,0.707106769],"scale":[0.3,0.3,0.3],"name":"flare_4"},{"mesh":5,"translation":[4.78068447,2.50922942,13.6892319],"rotation":[0.707106769,0.0,0.0,0.707106769],"scale":[0.3,0.3,0.3],"name":"flare_5"},{"mesh":6,"translation":[-6.185146,2.50922942,13.66543],"rotation":[0.707106769,0.0,0.0,0.707106769],"scale":[0.3,0.3,0.3],"name":"flare_6"},{"mesh":7,"translation":[-14.1447458,2.50922942,4.574513],"rotation":[0.707106769,0.0,0.0,0.707106769],"scale":[0.3,0.3,0.3],"name":"flare_7"},{"mesh":8,"translation":[-10.0,2.50922942,-11.0],"rotation":[0.707106769,0.0,0.0,0.707106769],"scale":[0.3,0.3,0.3],"name":"flare_8"},{"mesh":9,"translation":[-15.0,2.50922942,0.0],"rotation":[0.707106769,0.0,0.0,0.707106769],"scale":[0.3,0.3,0.3],"name":"flare_9"},{"mesh":10,"translation":[-10.5,2.50922942,10.0],"rotation":[0.707106769,0.0,0.0,0.707106769],"scale":[0.3,0.3,0.3],"name":"flare_10"},{"mesh":11,"translation":[0.0,2.50922942,14.2991724],"rotation":[0.707106769,0.0,0.0,0.707106769],"scale":[0.3,0.3,0.3],"name":"flare_11"},{"mesh":12,"translation":[10.4719419,2.50922942,10.0],"rotation":[0.707106769,0.0,0.0,0.707106769],"scale":[0.3,0.3,0.3],"name":"flare_12"},{"mesh":13,"translation":[15.3974533,2.50922942,0.0],"rotation":[0.707106769,0.0,0.0,0.707106769],"scale":[0.3,0.3,0.3],"name":"flare_13"},{"mesh":14,"translation":[10.0,2.50922942,-12.0],"rotation":[0.707106769,0.0,0.0,0.707106769],"scale":[0.3,0.3,0.3],"name":"flare_14"},{"mesh":15,"translation":[0.0,2.50922942,-15.0],"rotation":[0.707106769,0.0,0.0,0.707106769],"scale":[0.3,0.3,0.3],"name":"flare_15"}],"meshes":[{"primitives":[{"attributes":{"POSITION":1,"NORMAL":2,"TANGENT":3,"TEXCOORD_0":4},"indices":0,"mode":4,"material":0}],"name":"flare_0"},{"primitives":[{"attributes":{"POSITION":6,"NORMAL":7,"TANGENT":8,"TEXCOORD_0":9},"indices":5,"mode":4,"material":0}],"name":"flare_1"},{"primitives":[{"attributes":{"POSITION":11,"NORMAL":12,"TANGENT":13,"TEXCOORD_0":14},"indices":10,"mode":4,"material":0}],"name":"flare_2"},{"primitives":[{"attributes":{"POSITION":16,"NORMAL":17,"TANGENT":18,"TEXCOORD_0":19},"indices":15,"mode":4,"material":0}],"name":"flare_3"},{"primitives":[{"attributes":{"POSITION":21,"NORMAL":22,"TANGENT":23,"TEXCOORD_0":24},"indices":20,"mode":4,"material":0}],"name":"flare_4"},{"primitives":[{"attributes":{"POSITION":26,"NORMAL":27,"TANGENT":28,"TEXCOORD_0":29},"indices":25,"mode":4,"material":0}],"name":"flare_5"},{"primitives":[{"attributes":{"POSITION":31,"NORMAL":32,"TANGENT":33,"TEXCOORD_0":34},"indices":30,"mode":4,"material":0}],"name":"flare_6"},{"primitives":[{"attributes":{"POSITION":36,"NORMAL":37,"TANGENT":38,"TEXCOORD_0":39},"indices":35,"mode":4,"material":0}],"name":"flare_7"},{"primitives":[{"attributes":{"POSITION":41,"NORMAL":42,"TANGENT":43,"TEXCOORD_0":44},"indices":40,"mode":4,"material":0}],"name":"flare_8"},{"primitives":[{"attributes":{"POSITION":46,"NORMAL":47,"TANGENT":48,"TEXCOORD_0":49},"indices":45,"mode":4,"material":0}],"name":"flare_9"},{"primitives":[{"attributes":{"POSITION":51,"NORMAL":52,"TANGENT":53,"TEXCOORD_0":54},"indices":50,"mode":4,"material":0}],"name":"flare_10"},{"primitives":[{"attributes":{"POSITION":56,"NORMAL":57,"TANGENT":58,"TEXCOORD_0":59},"indices":55,"mode":4,"material":0}],"name":"flare_11"},{"primitives":[{"attributes":{"POSITION":61,"NORMAL":62,"TANGENT":63,"TEXCOORD_0":64},"indices":60,"mode":4,"material":0}],"name":"flare_12"},{"primitives":[{"attributes":{"POSITION":66,"NORMAL":67,"TANGENT":68,"TEXCOORD_0":69},"indices":65,"mode":4,"material":0}],"name":"flare_13"},{"primitives":[{"attributes":{"POSITION":71,"NORMAL":72,"TANGENT":73,"TEXCOORD_0":74},"indices":70,"mode":4,"material":0}],"name":"flare_14"},{"primitives":[{"attributes":{"POSITION":76,"NORMAL":77,"TANGENT":78,"TEXCOORD_0":79},"indices":75,"mode":4,"material":0}],"name":"flare_15"}],"accessors":[{"bufferView":0,"componentType":5123,"count":6,"type":"SCALAR","name":"accessorIndices"},{"bufferView":1,"componentType":5126,"count":4,"max":[33.87754,0.0,33.87754],"min":[-33.87754,0.0,-33.87754],"type":"VEC3","name":"accessorPositions"},{"bufferView":1,"byteOffset":48,"componentType":5126,"count":4,"type":"VEC3","name":"accessorNormals"},{"bufferView":2,"componentType":5126,"count":4,"type":"VEC4","name":"accessorTangents"},{"bufferView":3,"componentType":5126,"count":4,"type":"VEC2","name":"accessorUVs"},{"bufferView":0,"byteOffset":12,"componentType":5123,"count":6,"type":"SCALAR","name":"accessorIndices"},{"bufferView":1,"byteOffset":96,"componentType":5126,"count":4,"max":[33.87754,6.921899E-16,33.87754],"min":[-33.87754,-2.48100715E-16,-33.87754],"type":"VEC3","name":"accessorPositions"},{"bufferView":1,"byteOffset":144,"componentType":5126,"count":4,"type":"VEC3","name":"accessorNormals"},{"bufferView":2,"byteOffset":64,"componentType":5126,"count":4,"type":"VEC4","name":"accessorTangents"},{"bufferView":3,"byteOffset":32,"componentType":5126,"count":4,"type":"VEC2","name":"accessorUVs"},{"bufferView":0,"byteOffset":24,"componentType":5123,"count":6,"type":"SCALAR","name":"accessorIndices"},{"bufferView":1,"byteOffset":192,"componentType":5126,"count":4,"max":[33.87754,0.0,33.87754],"min":[-33.87754,0.0,-33.87754],"type":"VEC3","name":"accessorPositions"},{"bufferView":1,"byteOffset":240,"componentType":5126,"count":4,"type":"VEC3","name":"accessorNormals"},{"bufferView":2,"byteOffset":128,"componentType":5126,"count":4,"type":"VEC4","name":"accessorTangents"},{"bufferView":3,"byteOffset":64,"componentType":5126,"count":4,"type":"VEC2","name":"accessorUVs"},{"bufferView":0,"byteOffset":36,"componentType":5123,"count":6,"type":"SCALAR","name":"accessorIndices"},{"bufferView":1,"byteOffset":288,"componentType":5126,"count":4,"max":[33.87754,0.0,33.87754],"min":[-33.87754,0.0,-33.87754],"type":"VEC3","name":"accessorPositions"},{"bufferView":1,"byteOffset":336,"componentType":5126,"count":4,"type":"VEC3","name":"accessorNormals"},{"bufferView":2,"byteOffset":192,"componentType":5126,"count":4,"type":"VEC4","name":"accessorTangents"},{"bufferView":3,"byteOffset":96,"componentType":5126,"count":4,"type":"VEC2","name":"accessorUVs"},{"bufferView":0,"byteOffset":48,"componentType":5123,"count":6,"type":"SCALAR","name":"accessorIndices"},{"bufferView":1,"byteOffset":384,"componentType":5126,"count":4,"max":[33.87754,-2.220446E-16,33.87754],"min":[-33.87754,-2.220446E-16,-33.87754],"type":"VEC3","name":"accessorPositions"},{"bufferView":1,"byteOffset":432,"componentType":5126,"count":4,"type":"VEC3","name":"accessorNormals"},{"bufferView":2,"byteOffset":256,"componentType":5126,"count":4,"type":"VEC4","name":"accessorTangents"},{"bufferView":3,"byteOffset":128,"componentType":5126,"count":4,"type":"VEC2","name":"accessorUVs"},{"bufferView":0,"byteOffset":60,"componentType":5123,"count":6,"type":"SCALAR","name":"accessorIndices"},{"bufferView":1,"byteOffset":480,"componentType":5126,"count":4,"max":[33.87754,4.701453E-16,33.87754],"min":[-33.87754,-4.701453E-16,-33.87754],"type":"VEC3","name":"accessorPositions"},{"bufferView":1,"byteOffset":528,"componentType":5126,"count":4,"type":"VEC3","name":"accessorNormals"},{"bufferView":2,"byteOffset":320,"componentType":5126,"count":4,"type":"VEC4","name":"accessorTangents"},{"bufferView":3,"byteOffset":160,"componentType":5126,"count":4,"type":"VEC2","name":"accessorUVs"},{"bufferView":0,"byteOffset":72,"componentType":5123,"count":6,"type":"SCALAR","name":"accessorIndices"},{"bufferView":1,"byteOffset":576,"componentType":5126,"count":4,"max":[33.87754,0.0,33.87754],"min":[-33.87754,0.0,-33.87754],"type":"VEC3","name":"accessorPositions"},{"bufferView":1,"byteOffset":624,"componentType":5126,"count":4,"type":"VEC3","name":"accessorNormals"},{"bufferView":2,"byteOffset":384,"componentType":5126,"count":4,"type":"VEC4","name":"accessorTangents"},{"bufferView":3,"byteOffset":192,"componentType":5126,"count":4,"type":"VEC2","name":"accessorUVs"},{"bufferView":0,"byteOffset":84,"componentType":5123,"count":6,"type":"SCALAR","name":"accessorIndices"},{"bufferView":1,"byteOffset":672,"componentType":5126,"count":4,"max":[33.87754,6.921899E-16,33.87754],"min":[-33.87754,-2.48100715E-16,-33.87754],"type":"VEC3","name":"accessorPositions"},{"bufferView":1,"byteOffset":720,"componentType":5126,"count":4,"type":"VEC3","name":"accessorNormals"},{"bufferView":2,"byteOffset":448,"componentType":5126,"count":4,"type":"VEC4","name":"accessorTangents"},{"bufferView":3,"byteOffset":224,"componentType":5126,"count":4,"type":"VEC2","name":"accessorUVs"},{"bufferView":0,"byteOffset":96,"componentType":5123,"count":6,"type":"SCALAR","name":"accessorIndices"},{"bufferView":1,"byteOffset":768,"componentType":5126,"count":4,"max":[33.87754,6.921899E-16,33.87754],"min":[-33.87754,-2.48100715E-16,-33.87754],"type":"VEC3","name":"accessorPositions"},{"bufferView":1,"byteOffset":816,"componentType":5126,"count":4,"type":"VEC3","name":"accessorNormals"},{"bufferView":2,"byteOffset":512,"componentType":5126,"count":4,"type":"VEC4","name":"accessorTangents"},{"bufferView":3,"byteOffset":256,"componentType":5126,"count":4,"type":"VEC2","name":"accessorUVs"},{"bufferView":0,"byteOffset":108,"componentType":5123,"count":6,"type":"SCALAR","name":"accessorIndices"},{"bufferView":1,"byteOffset":864,"componentType":5126,"count":4,"max":[33.87754,0.0,33.87754],"min":[-33.87754,0.0,-33.87754],"type":"VEC3","name":"accessorPositions"},{"bufferView":1,"byteOffset":912,"componentType":5126,"count":4,"type":"VEC3","name":"accessorNormals"},{"bufferView":2,"byteOffset":576,"componentType":5126,"count":4,"type":"VEC4","name":"accessorTangents"},{"bufferView":3,"byteOffset":288,"componentType":5126,"count":4,"type":"VEC2","name":"accessorUVs"},{"bufferView":0,"byteOffset":120,"componentType":5123,"count":6,"type":"SCALAR","name":"accessorIndices"},{"bufferView":1,"byteOffset":960,"componentType":5126,"count":4,"max":[33.87754,4.701453E-16,33.87754],"min":[-33.87754,-4.701453E-16,-33.87754],"type":"VEC3","name":"accessorPositions"},{"bufferView":1,"byteOffset":1008,"componentType":5126,"count":4,"type":"VEC3","name":"accessorNormals"},{"bufferView":2,"byteOffset":640,"componentType":5126,"count":4,"type":"VEC4","name":"accessorTangents"},{"bufferView":3,"byteOffset":320,"componentType":5126,"count":4,"type":"VEC2","name":"accessorUVs"},{"bufferView":0,"byteOffset":132,"componentType":5123,"count":6,"type":"SCALAR","name":"accessorIndices"},{"bufferView":1,"byteOffset":1056,"componentType":5126,"count":4,"max":[33.87754,-2.220446E-16,33.87754],"min":[-33.87754,-2.220446E-16,-33.87754],"type":"VEC3","name":"accessorPositions"},{"bufferView":1,"byteOffset":1104,"componentType":5126,"count":4,"type":"VEC3","name":"accessorNormals"},{"bufferView":2,"byteOffset":704,"componentType":5126,"count":4,"type":"VEC4","name":"accessorTangents"},{"bufferView":3,"byteOffset":352,"componentType":5126,"count":4,"type":"VEC2","name":"accessorUVs"},{"bufferView":0,"byteOffset":144,"componentType":5123,"count":6,"type":"SCALAR","name":"accessorIndices"},{"bufferView":1,"byteOffset":1152,"componentType":5126,"count":4,"max":[33.87754,0.0,33.87754],"min":[-33.87754,0.0,-33.87754],"type":"VEC3","name":"accessorPositions"},{"bufferView":1,"byteOffset":1200,"componentType":5126,"count":4,"type":"VEC3","name":"accessorNormals"},{"bufferView":2,"byteOffset":768,"componentType":5126,"count":4,"type":"VEC4","name":"accessorTangents"},{"bufferView":3,"byteOffset":384,"componentType":5126,"count":4,"type":"VEC2","name":"accessorUVs"},{"bufferView":0,"byteOffset":156,"componentType":5123,"count":6,"type":"SCALAR","name":"accessorIndices"},{"bufferView":1,"byteOffset":1248,"componentType":5126,"count":4,"max":[33.87754,0.0,33.87754],"min":[-33.87754,0.0,-33.87754],"type":"VEC3","name":"accessorPositions"},{"bufferView":1,"byteOffset":1296,"componentType":5126,"count":4,"type":"VEC3","name":"accessorNormals"},{"bufferView":2,"byteOffset":832,"componentType":5126,"count":4,"type":"VEC4","name":"accessorTangents"},{"bufferView":3,"byteOffset":416,"componentType":5126,"count":4,"type":"VEC2","name":"accessorUVs"},{"bufferView":0,"byteOffset":168,"componentType":5123,"count":6,"type":"SCALAR","name":"accessorIndices"},{"bufferView":1,"byteOffset":1344,"componentType":5126,"count":4,"max":[33.87754,6.921899E-16,33.87754],"min":[-33.87754,-2.48100715E-16,-33.87754],"type":"VEC3","name":"accessorPositions"},{"bufferView":1,"byteOffset":1392,"componentType":5126,"count":4,"type":"VEC3","name":"accessorNormals"},{"bufferView":2,"byteOffset":896,"componentType":5126,"count":4,"type":"VEC4","name":"accessorTangents"},{"bufferView":3,"byteOffset":448,"componentType":5126,"count":4,"type":"VEC2","name":"accessorUVs"},{"bufferView":0,"byteOffset":180,"componentType":5123,"count":6,"type":"SCALAR","name":"accessorIndices"},{"bufferView":1,"byteOffset":1440,"componentType":5126,"count":4,"max":[33.87754,0.0,33.87754],"min":[-33.87754,0.0,-33.87754],"type":"VEC3","name":"accessorPositions"},{"bufferView":1,"byteOffset":1488,"componentType":5126,"count":4,"type":"VEC3","name":"accessorNormals"},{"bufferView":2,"byteOffset":960,"componentType":5126,"count":4,"type":"VEC4","name":"accessorTangents"},{"bufferView":3,"byteOffset":480,"componentType":5126,"count":4,"type":"VEC2","name":"accessorUVs"}],"bufferViews":[{"buffer":0,"byteLength":192,"name":"bufferViewScalar"},{"buffer":0,"byteOffset":192,"byteLength":1536,"byteStride":12,"name":"bufferViewFloatVec3"},{"buffer":0,"byteOffset":1728,"byteLength":1024,"byteStride":16,"name":"bufferViewFloatVec4"},{"buffer":0,"byteOffset":2752,"byteLength":512,"byteStride":8,"name":"bufferViewFloatVec2"}],"buffers":[{"uri":"flare.bin","byteLength":3264}],"materials":[{"pbrMetallicRoughness":{"baseColorFactor":[0.25,0.25,0.25,1.0],"metallicFactor":0.0,"roughnessFactor":0.450053632},"emissiveFactor":[0.0,0.0,0.0],"alphaMode":"OPAQUE","name":"flare"}]}