{"asset":{"version":"2.0","generator":"babylon.js glTF exporter for maya 2018 v20190722.2"},"scene":0,"scenes":[{"nodes":[0,13,14],"extensions":{}}],"nodes":[{"children":[1,2,3,4,8,12],"translation":[0.0,10.0,0.0],"rotation":[0.0,0.0,0.0,1.0],"scale":[1.0,1.0,1.0],"name":"Main"},{"mesh":0,"translation":[0.0,0.0,0.0],"rotation":[0.0,0.0,0.0,1.0],"scale":[1.18935883,1.0,1.18935883],"name":"frame"},{"mesh":1,"translation":[0.0,2.96976423,0.0],"rotation":[0.0,0.0,0.0,1.0],"scale":[1.80836773,0.0222278554,1.80836773],"name":"Pusher"},{"mesh":2,"translation":[0.0,-6.0,0.0],"rotation":[0.0,0.0,0.0,1.0],"scale":[7.56288052,1.96828473,7.56288052],"name":"shadow"},{"children":[5],"translation":[50.0,5.684342E-14,5.684342E-14],"rotation":[0.0,0.0,0.0,1.0],"scale":[1.0,1.0,1.0],"name":"DICE_1"},{"children":[6,7],"translation":[-42.1733,42.3638,0.0],"rotation":[0.0,0.0,-0.707106769,0.707106769],"scale":[1.0,1.0,1.0],"name":"DICE_1_SELECTOR"},{"mesh":3,"translation":[0.0,0.0,0.0],"rotation":[0.0,0.0,0.0,1.0],"scale":[1.0,1.0,1.0],"name":"pointsDice1"},{"mesh":4,"translation":[0.0,0.0,0.0],"rotation":[0.0,0.0,0.0,1.0],"scale":[1.0,1.0,1.0],"name":"dice1"},{"children":[9],"translation":[-50.0,0.0,0.0],"rotation":[0.0,0.0,0.0,1.0],"scale":[1.0,1.0,1.0],"name":"DICE_0"},{"children":[10,11],"translation":[0.0,0.0,0.0],"rotation":[0.0,0.0,0.0,1.0],"scale":[1.0,1.0,1.0],"name":"DICE_0_SELECTOR"},{"mesh":5,"translation":[0.0,0.0,0.0],"rotation":[0.0,0.0,0.0,1.0],"scale":[1.0,1.0,1.0],"name":"pointsDice0"},{"mesh":6,"translation":[0.0,0.0,0.0],"rotation":[0.0,0.0,0.0,1.0],"scale":[1.0,1.0,1.0],"name":"dice0"},{"mesh":7,"translation":[0.0,212.3,0.0],"rotation":[0.0,0.0,0.0,1.0],"scale":[25.0,25.0,25.0],"name":"glass"},{"mesh":8,"translation":[0.0,0.0,0.0],"rotation":[0.0,0.0,0.0,1.0],"scale":[1.0,1.0,1.0],"name":"goldFrame"},{"camera":0,"translation":[-418.558,10.0,942.2143],"rotation":[0.119501844,-0.214812085,0.0264929216,0.9689547],"scale":[1.0,1.0,1.0],"name":"persp1"}],"cameras":[{"perspective":{"yfov":0.6605947,"zfar":10000.0,"znear":0.1},"type":"perspective","name":"persp1"}],"meshes":[{"primitives":[{"attributes":{"POSITION":1,"NORMAL":2,"TANGENT":3,"TEXCOORD_0":4},"indices":0,"mode":4,"material":0}],"name":"frame"},{"primitives":[{"attributes":{"POSITION":6,"NORMAL":7,"TANGENT":8,"TEXCOORD_0":9},"indices":5,"mode":4,"material":1}],"name":"Pusher"},{"primitives":[{"attributes":{"POSITION":11,"NORMAL":12,"TANGENT":13,"TEXCOORD_0":14},"indices":10,"mode":4,"material":2}],"name":"shadow"},{"primitives":[{"attributes":{"POSITION":16,"NORMAL":17,"TANGENT":18,"TEXCOORD_0":19},"indices":15,"mode":4,"material":3}],"name":"pointsDice1"},{"primitives":[{"attributes":{"POSITION":21,"NORMAL":22,"TANGENT":23,"TEXCOORD_0":24},"indices":20,"mode":4,"material":4}],"name":"dice1"},{"primitives":[{"attributes":{"POSITION":26,"NORMAL":27,"TANGENT":28,"TEXCOORD_0":29},"indices":25,"mode":4,"material":3}],"name":"pointsDice0"},{"primitives":[{"attributes":{"POSITION":31,"NORMAL":32,"TANGENT":33,"TEXCOORD_0":34},"indices":30,"mode":4,"material":4}],"name":"dice0"},{"primitives":[{"attributes":{"POSITION":36,"NORMAL":37,"TANGENT":38,"TEXCOORD_0":39},"indices":35,"mode":4,"material":5}],"name":"glass"},{"primitives":[{"attributes":{"POSITION":41,"NORMAL":42,"TANGENT":43,"TEXCOORD_0":44},"indices":40,"mode":4,"material":6}],"name":"goldFrame"}],"accessors":[{"bufferView":0,"componentType":5123,"count":5952,"type":"SCALAR","name":"accessorIndices"},{"bufferView":1,"componentType":5126,"count":992,"max":[276.695374,6.25,270.432251],"min":[-275.91626,-6.25,-259.49115],"type":"VEC3","name":"accessorPositions"},{"bufferView":1,"byteOffset":11904,"componentType":5126,"count":992,"type":"VEC3","name":"accessorNormals"},{"bufferView":2,"componentType":5126,"count":992,"type":"VEC4","name":"accessorTangents"},{"bufferView":3,"componentType":5126,"count":992,"type":"VEC2","name":"accessorUVs"},{"bufferView":0,"byteOffset":11904,"componentType":5123,"count":720,"type":"SCALAR","name":"accessorIndices"},{"bufferView":1,"byteOffset":23808,"componentType":5126,"count":244,"max":[100.0,100.0,100.000015],"min":[-100.000038,-100.0,-100.000061],"type":"VEC3","name":"accessorPositions"},{"bufferView":1,"byteOffset":26736,"componentType":5126,"count":244,"type":"VEC3","name":"accessorNormals"},{"bufferView":2,"byteOffset":15872,"componentType":5126,"count":244,"type":"VEC4","name":"accessorTangents"},{"bufferView":3,"byteOffset":7936,"componentType":5126,"count":244,"type":"VEC2","name":"accessorUVs"},{"bufferView":0,"byteOffset":13344,"componentType":5123,"count":600,"type":"SCALAR","name":"accessorIndices"},{"bufferView":1,"byteOffset":29664,"componentType":5126,"count":121,"max":[50.0,1.52587891E-05,50.0],"min":[-50.0,1.52587891E-05,-50.0],"type":"VEC3","name":"accessorPositions"},{"bufferView":1,"byteOffset":31116,"componentType":5126,"count":121,"type":"VEC3","name":"accessorNormals"},{"bufferView":2,"byteOffset":19776,"componentType":5126,"count":121,"type":"VEC4","name":"accessorTangents"},{"bufferView":3,"byteOffset":9888,"componentType":5126,"count":121,"type":"VEC2","name":"accessorUVs"},{"bufferView":0,"byteOffset":14544,"componentType":5123,"count":9072,"type":"SCALAR","name":"accessorIndices"},{"bufferView":1,"byteOffset":32568,"componentType":5126,"count":3156,"max":[42.5746536,84.9733658,42.7355728],"min":[-42.5503922,-0.492704421,-42.7760963],"type":"VEC3","name":"accessorPositions"},{"bufferView":1,"byteOffset":70440,"componentType":5126,"count":3156,"type":"VEC3","name":"accessorNormals"},{"bufferView":2,"byteOffset":21712,"componentType":5126,"count":3156,"type":"VEC4","name":"accessorTangents"},{"bufferView":3,"byteOffset":10856,"componentType":5126,"count":3156,"type":"VEC2","name":"accessorUVs"},{"bufferView":0,"byteOffset":32688,"componentType":5123,"count":12672,"type":"SCALAR","name":"accessorIndices"},{"bufferView":1,"byteOffset":108312,"componentType":5126,"count":3882,"max":[45.56744,87.7406845,45.43119],"min":[-45.3769455,-3.20358276,-45.5131],"type":"VEC3","name":"accessorPositions"},{"bufferView":1,"byteOffset":154896,"componentType":5126,"count":3882,"type":"VEC3","name":"accessorNormals"},{"bufferView":2,"byteOffset":72208,"componentType":5126,"count":3882,"type":"VEC4","name":"accessorTangents"},{"bufferView":3,"byteOffset":36104,"componentType":5126,"count":3882,"type":"VEC2","name":"accessorUVs"},{"bufferView":0,"byteOffset":58032,"componentType":5123,"count":9072,"type":"SCALAR","name":"accessorIndices"},{"bufferView":1,"byteOffset":201480,"componentType":5126,"count":3150,"max":[42.5746574,84.97337,42.7355766],"min":[-42.5503922,-0.492704421,-42.7760963],"type":"VEC3","name":"accessorPositions"},{"bufferView":1,"byteOffset":239280,"componentType":5126,"count":3150,"type":"VEC3","name":"accessorNormals"},{"bufferView":2,"byteOffset":134320,"componentType":5126,"count":3150,"type":"VEC4","name":"accessorTangents"},{"bufferView":3,"byteOffset":67160,"componentType":5126,"count":3150,"type":"VEC2","name":"accessorUVs"},{"bufferView":0,"byteOffset":76176,"componentType":5123,"count":12672,"type":"SCALAR","name":"accessorIndices"},{"bufferView":1,"byteOffset":277080,"componentType":5126,"count":3882,"max":[45.56744,87.7406845,45.43119],"min":[-45.3769455,-3.20358276,-45.5131],"type":"VEC3","name":"accessorPositions"},{"bufferView":1,"byteOffset":323664,"componentType":5126,"count":3882,"type":"VEC3","name":"accessorNormals"},{"bufferView":2,"byteOffset":184720,"componentType":5126,"count":3882,"type":"VEC4","name":"accessorTangents"},{"bufferView":3,"byteOffset":92360,"componentType":5126,"count":3882,"type":"VEC2","name":"accessorUVs"},{"bufferView":0,"byteOffset":101520,"componentType":5123,"count":5280,"type":"SCALAR","name":"accessorIndices"},{"bufferView":1,"byteOffset":370248,"componentType":5126,"count":1220,"max":[7.0,7.0,7.000002],"min":[-7.00000238,-8.404102,-7.00000429],"type":"VEC3","name":"accessorPositions"},{"bufferView":1,"byteOffset":384888,"componentType":5126,"count":1220,"type":"VEC3","name":"accessorNormals"},{"bufferView":2,"byteOffset":246832,"componentType":5126,"count":1220,"type":"VEC4","name":"accessorTangents"},{"bufferView":3,"byteOffset":123416,"componentType":5126,"count":1220,"type":"VEC2","name":"accessorUVs"},{"bufferView":0,"byteOffset":112080,"componentType":5123,"count":20256,"type":"SCALAR","name":"accessorIndices"},{"bufferView":1,"byteOffset":399528,"componentType":5126,"count":12296,"max":[348.4554,51.3066559,339.544037],"min":[-347.593475,4.899971,-328.3982],"type":"VEC3","name":"accessorPositions"},{"bufferView":1,"byteOffset":547080,"componentType":5126,"count":12296,"type":"VEC3","name":"accessorNormals"},{"bufferView":2,"byteOffset":266352,"componentType":5126,"count":12296,"type":"VEC4","name":"accessorTangents"},{"bufferView":3,"byteOffset":133176,"componentType":5126,"count":12296,"type":"VEC2","name":"accessorUVs"},{"bufferView":4,"componentType":5126,"count":2,"max":[1.45833337],"min":[0.0],"type":"SCALAR","name":"accessorAnimationInput"},{"bufferView":5,"componentType":5126,"count":2,"type":"VEC3","name":"accessorAnimationPositions"},{"bufferView":4,"byteOffset":8,"componentType":5126,"count":2,"max":[1.45833337],"min":[0.0],"type":"SCALAR","name":"accessorAnimationInput"},{"bufferView":5,"byteOffset":24,"componentType":5126,"count":2,"type":"VEC3","name":"accessorAnimationScales"},{"bufferView":4,"byteOffset":16,"componentType":5126,"count":2,"max":[1.45833337],"min":[0.0],"type":"SCALAR","name":"accessorAnimationInput"},{"bufferView":5,"byteOffset":48,"componentType":5126,"count":2,"type":"VEC3","name":"accessorAnimationScales"},{"bufferView":4,"byteOffset":24,"componentType":5126,"count":2,"max":[1.45833337],"min":[0.0],"type":"SCALAR","name":"accessorAnimationInput"},{"bufferView":5,"byteOffset":72,"componentType":5126,"count":2,"type":"VEC3","name":"accessorAnimationPositions"},{"bufferView":4,"byteOffset":32,"componentType":5126,"count":2,"max":[1.45833337],"min":[0.0],"type":"SCALAR","name":"accessorAnimationInput"},{"bufferView":5,"byteOffset":96,"componentType":5126,"count":2,"type":"VEC3","name":"accessorAnimationScales"},{"bufferView":4,"byteOffset":40,"componentType":5126,"count":2,"max":[1.45833337],"min":[0.0],"type":"SCALAR","name":"accessorAnimationInput"},{"bufferView":5,"byteOffset":120,"componentType":5126,"count":2,"type":"VEC3","name":"accessorAnimationPositions"},{"bufferView":4,"byteOffset":48,"componentType":5126,"count":36,"max":[1.45833337],"min":[0.0],"type":"SCALAR","name":"accessorAnimationInput"},{"bufferView":6,"componentType":5126,"count":36,"type":"VEC4","name":"accessorAnimationRotations"},{"bufferView":4,"byteOffset":192,"componentType":5126,"count":36,"max":[1.45833337],"min":[0.0],"type":"SCALAR","name":"accessorAnimationInput"},{"bufferView":5,"byteOffset":144,"componentType":5126,"count":36,"type":"VEC3","name":"accessorAnimationPositions"},{"bufferView":4,"byteOffset":336,"componentType":5126,"count":10,"max":[1.45833337],"min":[0.0],"type":"SCALAR","name":"accessorAnimationInput"},{"bufferView":6,"byteOffset":576,"componentType":5126,"count":10,"type":"VEC4","name":"accessorAnimationRotations"},{"bufferView":4,"byteOffset":376,"componentType":5126,"count":10,"max":[1.45833337],"min":[0.0],"type":"SCALAR","name":"accessorAnimationInput"},{"bufferView":5,"byteOffset":576,"componentType":5126,"count":10,"type":"VEC3","name":"accessorAnimationPositions"},{"bufferView":4,"byteOffset":416,"componentType":5126,"count":2,"max":[1.45833337],"min":[0.0],"type":"SCALAR","name":"accessorAnimationInput"},{"bufferView":5,"byteOffset":696,"componentType":5126,"count":2,"type":"VEC3","name":"accessorAnimationScales"},{"bufferView":4,"byteOffset":424,"componentType":5126,"count":2,"max":[1.45833337],"min":[0.0],"type":"SCALAR","name":"accessorAnimationInput"},{"bufferView":5,"byteOffset":720,"componentType":5126,"count":2,"type":"VEC3","name":"accessorAnimationScales"},{"bufferView":4,"byteOffset":432,"componentType":5126,"count":36,"max":[1.45833337],"min":[0.0],"type":"SCALAR","name":"accessorAnimationInput"},{"bufferView":6,"byteOffset":736,"componentType":5126,"count":36,"type":"VEC4","name":"accessorAnimationRotations"},{"bufferView":4,"byteOffset":576,"componentType":5126,"count":36,"max":[1.45833337],"min":[0.0],"type":"SCALAR","name":"accessorAnimationInput"},{"bufferView":5,"byteOffset":744,"componentType":5126,"count":36,"type":"VEC3","name":"accessorAnimationPositions"},{"bufferView":4,"byteOffset":720,"componentType":5126,"count":36,"max":[1.45833337],"min":[0.0],"type":"SCALAR","name":"accessorAnimationInput"},{"bufferView":6,"byteOffset":1312,"componentType":5126,"count":36,"type":"VEC4","name":"accessorAnimationRotations"},{"bufferView":4,"byteOffset":864,"componentType":5126,"count":36,"max":[1.45833337],"min":[0.0],"type":"SCALAR","name":"accessorAnimationInput"},{"bufferView":5,"byteOffset":1176,"componentType":5126,"count":36,"type":"VEC3","name":"accessorAnimationPositions"},{"bufferView":4,"byteOffset":1008,"componentType":5126,"count":2,"max":[1.45833337],"min":[0.0],"type":"SCALAR","name":"accessorAnimationInput"},{"bufferView":5,"byteOffset":1608,"componentType":5126,"count":2,"type":"VEC3","name":"accessorAnimationScales"},{"bufferView":4,"byteOffset":1016,"componentType":5126,"count":2,"max":[1.45833337],"min":[0.0],"type":"SCALAR","name":"accessorAnimationInput"},{"bufferView":5,"byteOffset":1632,"componentType":5126,"count":2,"type":"VEC3","name":"accessorAnimationScales"},{"bufferView":4,"byteOffset":1024,"componentType":5126,"count":2,"max":[1.45833337],"min":[0.0],"type":"SCALAR","name":"accessorAnimationInput"},{"bufferView":5,"byteOffset":1656,"componentType":5126,"count":2,"type":"VEC3","name":"accessorAnimationScales"},{"bufferView":4,"byteOffset":1032,"componentType":5126,"count":2,"max":[1.45833337],"min":[0.0],"type":"SCALAR","name":"accessorAnimationInput"},{"bufferView":5,"byteOffset":1680,"componentType":5126,"count":2,"type":"VEC3","name":"accessorAnimationPositions"},{"bufferView":4,"byteOffset":1040,"componentType":5126,"count":2,"max":[1.45833337],"min":[0.0],"type":"SCALAR","name":"accessorAnimationInput"},{"bufferView":5,"byteOffset":1704,"componentType":5126,"count":2,"type":"VEC3","name":"accessorAnimationScales"},{"bufferView":4,"byteOffset":1048,"componentType":5126,"count":2,"max":[1.45833337],"min":[0.0],"type":"SCALAR","name":"accessorAnimationInput"},{"bufferView":6,"byteOffset":1888,"componentType":5126,"count":2,"type":"VEC4","name":"accessorAnimationRotations"},{"bufferView":4,"byteOffset":1056,"componentType":5126,"count":2,"max":[1.45833337],"min":[0.0],"type":"SCALAR","name":"accessorAnimationInput"},{"bufferView":5,"byteOffset":1728,"componentType":5126,"count":2,"type":"VEC3","name":"accessorAnimationPositions"}],"bufferViews":[{"buffer":0,"byteLength":152592,"name":"bufferViewScalar"},{"buffer":0,"byteOffset":152592,"byteLength":694632,"byteStride":12,"name":"bufferViewFloatVec3"},{"buffer":0,"byteOffset":847224,"byteLength":463088,"byteStride":16,"name":"bufferViewFloatVec4"},{"buffer":0,"byteOffset":1310312,"byteLength":231544,"byteStride":8,"name":"bufferViewFloatVec2"},{"buffer":0,"byteOffset":1541856,"byteLength":1064,"name":"bufferViewAnimationFloatScalar"},{"buffer":0,"byteOffset":1542920,"byteLength":1752,"name":"bufferViewAnimationFloatVec3"},{"buffer":0,"byteOffset":1544672,"byteLength":1920,"name":"bufferViewAnimationFloatVec4"}],"buffers":[{"uri":"sicBo.bin","byteLength":1546592}],"materials":[{"pbrMetallicRoughness":{"baseColorFactor":[1.0,1.0,1.0,1.0],"baseColorTexture":{"index":1,"texCoord":0},"metallicFactor":0.0,"roughnessFactor":0.225380808},"emissiveTexture":{"index":0,"texCoord":0},"emissiveFactor":[1.0,1.0,1.0],"alphaMode":"OPAQUE","name":"frameMat"},{"pbrMetallicRoughness":{"baseColorFactor":[0.0236006528,0.1485,0.000890997355,1.0],"metallicFactor":0.0,"roughnessFactor":0.201679826},"emissiveFactor":[0.0,0.0,0.0],"alphaMode":"OPAQUE","name":"pusher"},{"pbrMetallicRoughness":{"baseColorFactor":[1.0,1.0,1.0,1.0],"baseColorTexture":{"index":2,"texCoord":0},"metallicFactor":0.0,"roughnessFactor":0.450053632},"emissiveFactor":[0.0,0.0,0.0],"alphaMode":"BLEND","name":"shadowMat"},{"pbrMetallicRoughness":{"baseColorFactor":[0.5,0.5,0.5,1.0],"metallicFactor":0.0,"roughnessFactor":0.2581639},"emissiveFactor":[0.181818187,0.181818187,0.181818187],"alphaMode":"OPAQUE","name":"dicePintsMat"},{"pbrMetallicRoughness":{"baseColorFactor":[0.49025,0.0,0.0171,1.0],"metallicFactor":0.0,"roughnessFactor":0.241855934},"emissiveFactor":[0.101870127,0.0,0.00355324685],"alphaMode":"OPAQUE","name":"diceMat"},{"pbrMetallicRoughness":{"baseColorFactor":[0.0053,0.0824,0.10225,0.227272749],"metallicFactor":0.0,"roughnessFactor":0.201679826},"emissiveFactor":[0.0,0.0,0.0],"alphaMode":"BLEND","name":"glassMat"},{"pbrMetallicRoughness":{"baseColorFactor":[0.3961039,0.271890253,0.0,1.0],"metallicFactor":0.0,"roughnessFactor":0.208839417},"emissiveFactor":[0.0,0.0,0.0],"alphaMode":"OPAQUE","name":"goldenMat"}],"textures":[{"sampler":0,"source":0,"name":"frameMat_emissive.jpg"},{"sampler":1,"source":1,"name":"frameMat_baseColor.jpg"},{"sampler":2,"source":2,"name":"shadowMat_baseColor.png"}],"images":[{"uri":"frameMat_emissive.jpg"},{"uri":"frameMat_baseColor.jpg"},{"uri":"shadowMat_baseColor.png"}],"samplers":[{"magFilter":9729,"minFilter":9987,"wrapS":10497,"wrapT":10497},{"magFilter":9729,"minFilter":9987,"wrapS":10497,"wrapT":10497},{"magFilter":9729,"minFilter":9987,"wrapS":10497,"wrapT":10497}],"animations":[{"channels":[{"sampler":0,"target":{"node":0,"path":"translation"}},{"sampler":1,"target":{"node":1,"path":"scale"}},{"sampler":2,"target":{"node":2,"path":"scale"}},{"sampler":3,"target":{"node":2,"path":"translation"}},{"sampler":4,"target":{"node":3,"path":"scale"}},{"sampler":5,"target":{"node":3,"path":"translation"}},{"sampler":6,"target":{"node":4,"path":"rotation"}},{"sampler":7,"target":{"node":4,"path":"translation"}},{"sampler":8,"target":{"node":5,"path":"rotation"}},{"sampler":9,"target":{"node":5,"path":"translation"}},{"sampler":10,"target":{"node":6,"path":"scale"}},{"sampler":11,"target":{"node":7,"path":"scale"}},{"sampler":12,"target":{"node":8,"path":"rotation"}},{"sampler":13,"target":{"node":8,"path":"translation"}},{"sampler":14,"target":{"node":9,"path":"rotation"}},{"sampler":15,"target":{"node":9,"path":"translation"}},{"sampler":16,"target":{"node":10,"path":"scale"}},{"sampler":17,"target":{"node":11,"path":"scale"}},{"sampler":18,"target":{"node":12,"path":"scale"}},{"sampler":19,"target":{"node":12,"path":"translation"}},{"sampler":20,"target":{"node":13,"path":"scale"}},{"sampler":21,"target":{"node":14,"path":"rotation"}},{"sampler":22,"target":{"node":14,"path":"translation"}}],"samplers":[{"input":45,"interpolation":"LINEAR","output":46},{"input":47,"interpolation":"LINEAR","output":48},{"input":49,"interpolation":"LINEAR","output":50},{"input":51,"interpolation":"LINEAR","output":52},{"input":53,"interpolation":"LINEAR","output":54},{"input":55,"interpolation":"LINEAR","output":56},{"input":57,"interpolation":"LINEAR","output":58},{"input":59,"interpolation":"LINEAR","output":60},{"input":61,"interpolation":"LINEAR","output":62},{"input":63,"interpolation":"LINEAR","output":64},{"input":65,"interpolation":"LINEAR","output":66},{"input":67,"interpolation":"LINEAR","output":68},{"input":69,"interpolation":"LINEAR","output":70},{"input":71,"interpolation":"LINEAR","output":72},{"input":73,"interpolation":"LINEAR","output":74},{"input":75,"interpolation":"LINEAR","output":76},{"input":77,"interpolation":"LINEAR","output":78},{"input":79,"interpolation":"LINEAR","output":80},{"input":81,"interpolation":"LINEAR","output":82},{"input":83,"interpolation":"LINEAR","output":84},{"input":85,"interpolation":"LINEAR","output":86},{"input":87,"interpolation":"LINEAR","output":88},{"input":89,"interpolation":"LINEAR","output":90}],"name":"pushDices"}]}