{"asset":{"version":"2.0","generator":"babylon.js glTF exporter for maya 2018 v20190722.2"},"scene":0,"scenes":[{"nodes":[0],"extensions":{}}],"nodes":[{"children":[1,2,3,4,5,6,9],"translation":[0.0,10.0,0.0],"rotation":[0.0,0.0,0.0,1.0],"scale":[1.0,1.0,1.0],"name":"Main"},{"mesh":0,"translation":[0.0,212.290283,0.0],"rotation":[0.0,0.0,0.0,1.0],"scale":[25.0,25.0,25.0],"name":"glass"},{"mesh":1,"translation":[0.0,0.0,0.0],"rotation":[0.0,0.0,0.0,1.0],"scale":[1.18935883,1.0,1.18935883],"name":"frame"},{"mesh":2,"translation":[0.0,0.0,0.0],"rotation":[0.0,0.0,0.0,1.0],"scale":[1.0,1.0,1.0],"name":"Golden"},{"mesh":3,"translation":[0.0,2.96976423,0.0],"rotation":[0.0,0.0,0.0,1.0],"scale":[1.80836773,0.0222278554,1.80836773],"name":"Pusher"},{"mesh":4,"translation":[0.0,-6.0,0.0],"rotation":[0.0,0.0,0.0,1.0],"scale":[7.408202,1.96828473,7.408202],"name":"shadow"},{"children":[7,8],"translation":[101.108932,20.59963,10.6091175],"rotation":[0.0,0.0,0.0,1.0],"scale":[1.0,1.0,1.0],"name":"DICE_1"},{"mesh":5,"translation":[0.0,0.0,0.0],"rotation":[0.0,0.0,0.0,1.0],"scale":[1.0,1.0,1.0],"name":"dice"},{"mesh":6,"translation":[0.0,0.0,0.0],"rotation":[0.0,0.0,0.0,1.0],"scale":[1.0,1.0,1.0],"name":"pointsDice"},{"children":[10,11],"translation":[-67.89409,8.900129,-75.118576],"rotation":[0.0188410245,-0.004189049,-0.0282420423,0.999414742],"scale":[1.0,1.0,1.0],"name":"DICE_0"},{"mesh":7,"translation":[0.0,0.0,0.0],"rotation":[0.0,0.0,0.0,1.0],"scale":[1.0,1.0,1.0],"name":"dice (1)"},{"mesh":8,"translation":[0.0,0.0,0.0],"rotation":[0.0,0.0,0.0,1.0],"scale":[1.0,1.0,1.0],"name":"pointsDice (1)"}],"meshes":[{"primitives":[{"attributes":{"POSITION":1,"NORMAL":2,"TANGENT":3,"TEXCOORD_0":4},"indices":0,"mode":4,"material":0}],"name":"glass"},{"primitives":[{"attributes":{"POSITION":6,"NORMAL":7,"TANGENT":8,"TEXCOORD_0":9},"indices":5,"mode":4,"material":1}],"name":"frame"},{"primitives":[{"attributes":{"POSITION":11,"NORMAL":12,"TANGENT":13,"TEXCOORD_0":14},"indices":10,"mode":4,"material":2}],"name":"Golden"},{"primitives":[{"attributes":{"POSITION":16,"NORMAL":17,"TANGENT":18,"TEXCOORD_0":19},"indices":15,"mode":4,"material":3}],"name":"Pusher"},{"primitives":[{"attributes":{"POSITION":21,"NORMAL":22,"TANGENT":23,"TEXCOORD_0":24},"indices":20,"mode":4,"material":4}],"name":"shadow"},{"primitives":[{"attributes":{"POSITION":26,"NORMAL":27,"TANGENT":28,"TEXCOORD_0":29},"indices":25,"mode":4,"material":5}],"name":"dice"},{"primitives":[{"attributes":{"POSITION":31,"NORMAL":32,"TANGENT":33,"TEXCOORD_0":34},"indices":30,"mode":4,"material":6}],"name":"pointsDice"},{"primitives":[{"attributes":{"POSITION":36,"NORMAL":37,"TANGENT":38,"TEXCOORD_0":39},"indices":35,"mode":4,"material":5}],"name":"dice"},{"primitives":[{"attributes":{"POSITION":41,"NORMAL":42,"TANGENT":43,"TEXCOORD_0":44},"indices":40,"mode":4,"material":6}],"name":"pointsDice"}],"accessors":[{"bufferView":0,"componentType":5123,"count":5280,"type":"SCALAR","name":"accessorIndices"},{"bufferView":1,"componentType":5126,"count":1220,"max":[7.0,7.0,7.000002],"min":[-7.00000238,-8.404102,-7.00000429],"type":"VEC3","name":"accessorPositions"},{"bufferView":1,"byteOffset":14640,"componentType":5126,"count":1220,"type":"VEC3","name":"accessorNormals"},{"bufferView":2,"componentType":5126,"count":1220,"type":"VEC4","name":"accessorTangents"},{"bufferView":3,"componentType":5126,"count":1220,"type":"VEC2","name":"accessorUVs"},{"bufferView":0,"byteOffset":10560,"componentType":5123,"count":5952,"type":"SCALAR","name":"accessorIndices"},{"bufferView":1,"byteOffset":29280,"componentType":5126,"count":992,"max":[276.695374,6.25,270.432251],"min":[-275.91626,-6.25,-259.49115],"type":"VEC3","name":"accessorPositions"},{"bufferView":1,"byteOffset":41184,"componentType":5126,"count":992,"type":"VEC3","name":"accessorNormals"},{"bufferView":2,"byteOffset":19520,"componentType":5126,"count":992,"type":"VEC4","name":"accessorTangents"},{"bufferView":3,"byteOffset":9760,"componentType":5126,"count":992,"type":"VEC2","name":"accessorUVs"},{"bufferView":0,"byteOffset":22464,"componentType":5123,"count":20256,"type":"SCALAR","name":"accessorIndices"},{"bufferView":1,"byteOffset":53088,"componentType":5126,"count":3924,"max":[344.749237,41.3066559,335.987549],"min":[-343.8873,-5.100029,-324.8417],"type":"VEC3","name":"accessorPositions"},{"bufferView":1,"byteOffset":100176,"componentType":5126,"count":3924,"type":"VEC3","name":"accessorNormals"},{"bufferView":2,"byteOffset":35392,"componentType":5126,"count":3924,"type":"VEC4","name":"accessorTangents"},{"bufferView":3,"byteOffset":17696,"componentType":5126,"count":3924,"type":"VEC2","name":"accessorUVs"},{"bufferView":0,"byteOffset":62976,"componentType":5123,"count":720,"type":"SCALAR","name":"accessorIndices"},{"bufferView":1,"byteOffset":147264,"componentType":5126,"count":244,"max":[100.0,100.0,100.000015],"min":[-100.000038,-100.0,-100.000061],"type":"VEC3","name":"accessorPositions"},{"bufferView":1,"byteOffset":150192,"componentType":5126,"count":244,"type":"VEC3","name":"accessorNormals"},{"bufferView":2,"byteOffset":98176,"componentType":5126,"count":244,"type":"VEC4","name":"accessorTangents"},{"bufferView":3,"byteOffset":49088,"componentType":5126,"count":244,"type":"VEC2","name":"accessorUVs"},{"bufferView":0,"byteOffset":64416,"componentType":5123,"count":600,"type":"SCALAR","name":"accessorIndices"},{"bufferView":1,"byteOffset":153120,"componentType":5126,"count":121,"max":[100.0,7.62939453E-06,100.0],"min":[-100.0,7.62939453E-06,-100.0],"type":"VEC3","name":"accessorPositions"},{"bufferView":1,"byteOffset":154572,"componentType":5126,"count":121,"type":"VEC3","name":"accessorNormals"},{"bufferView":2,"byteOffset":102080,"componentType":5126,"count":121,"type":"VEC4","name":"accessorTangents"},{"bufferView":3,"byteOffset":51040,"componentType":5126,"count":121,"type":"VEC2","name":"accessorUVs"},{"bufferView":0,"byteOffset":65616,"componentType":5123,"count":12672,"type":"SCALAR","name":"accessorIndices"},{"bufferView":1,"byteOffset":156024,"componentType":5126,"count":3882,"max":[45.56744,87.7406845,45.43119],"min":[-45.3769455,-3.20358276,-45.5131],"type":"VEC3","name":"accessorPositions"},{"bufferView":1,"byteOffset":202608,"componentType":5126,"count":3882,"type":"VEC3","name":"accessorNormals"},{"bufferView":2,"byteOffset":104016,"componentType":5126,"count":3882,"type":"VEC4","name":"accessorTangents"},{"bufferView":3,"byteOffset":52008,"componentType":5126,"count":3882,"type":"VEC2","name":"accessorUVs"},{"bufferView":0,"byteOffset":90960,"componentType":5123,"count":9072,"type":"SCALAR","name":"accessorIndices"},{"bufferView":1,"byteOffset":249192,"componentType":5126,"count":3156,"max":[42.5746536,84.9733658,42.7355728],"min":[-42.5503922,-0.492704421,-42.7760963],"type":"VEC3","name":"accessorPositions"},{"bufferView":1,"byteOffset":287064,"componentType":5126,"count":3156,"type":"VEC3","name":"accessorNormals"},{"bufferView":2,"byteOffset":166128,"componentType":5126,"count":3156,"type":"VEC4","name":"accessorTangents"},{"bufferView":3,"byteOffset":83064,"componentType":5126,"count":3156,"type":"VEC2","name":"accessorUVs"},{"bufferView":0,"byteOffset":109104,"componentType":5123,"count":12672,"type":"SCALAR","name":"accessorIndices"},{"bufferView":1,"byteOffset":324936,"componentType":5126,"count":3882,"max":[45.56744,87.7406845,45.43119],"min":[-45.3769455,-3.20358276,-45.5131],"type":"VEC3","name":"accessorPositions"},{"bufferView":1,"byteOffset":371520,"componentType":5126,"count":3882,"type":"VEC3","name":"accessorNormals"},{"bufferView":2,"byteOffset":216624,"componentType":5126,"count":3882,"type":"VEC4","name":"accessorTangents"},{"bufferView":3,"byteOffset":108312,"componentType":5126,"count":3882,"type":"VEC2","name":"accessorUVs"},{"bufferView":0,"byteOffset":134448,"componentType":5123,"count":9072,"type":"SCALAR","name":"accessorIndices"},{"bufferView":1,"byteOffset":418104,"componentType":5126,"count":3150,"max":[42.5746574,84.97337,42.7355766],"min":[-42.5503922,-0.492704421,-42.7760963],"type":"VEC3","name":"accessorPositions"},{"bufferView":1,"byteOffset":455904,"componentType":5126,"count":3150,"type":"VEC3","name":"accessorNormals"},{"bufferView":2,"byteOffset":278736,"componentType":5126,"count":3150,"type":"VEC4","name":"accessorTangents"},{"bufferView":3,"byteOffset":139368,"componentType":5126,"count":3150,"type":"VEC2","name":"accessorUVs"},{"bufferView":4,"componentType":5126,"count":2,"max":[4.125],"min":[0.0],"type":"SCALAR","name":"accessorAnimationInput"},{"bufferView":5,"componentType":5126,"count":2,"type":"VEC3","name":"accessorAnimationPositions"},{"bufferView":4,"byteOffset":8,"componentType":5126,"count":2,"max":[4.125],"min":[0.0],"type":"SCALAR","name":"accessorAnimationInput"},{"bufferView":5,"byteOffset":24,"componentType":5126,"count":2,"type":"VEC3","name":"accessorAnimationScales"},{"bufferView":4,"byteOffset":16,"componentType":5126,"count":2,"max":[4.125],"min":[0.0],"type":"SCALAR","name":"accessorAnimationInput"},{"bufferView":5,"byteOffset":48,"componentType":5126,"count":2,"type":"VEC3","name":"accessorAnimationPositions"},{"bufferView":4,"byteOffset":24,"componentType":5126,"count":2,"max":[4.125],"min":[0.0],"type":"SCALAR","name":"accessorAnimationInput"},{"bufferView":5,"byteOffset":72,"componentType":5126,"count":2,"type":"VEC3","name":"accessorAnimationScales"},{"bufferView":4,"byteOffset":32,"componentType":5126,"count":2,"max":[4.125],"min":[0.0],"type":"SCALAR","name":"accessorAnimationInput"},{"bufferView":5,"byteOffset":96,"componentType":5126,"count":2,"type":"VEC3","name":"accessorAnimationScales"},{"bufferView":4,"byteOffset":40,"componentType":5126,"count":2,"max":[4.125],"min":[0.0],"type":"SCALAR","name":"accessorAnimationInput"},{"bufferView":5,"byteOffset":120,"componentType":5126,"count":2,"type":"VEC3","name":"accessorAnimationPositions"},{"bufferView":4,"byteOffset":48,"componentType":5126,"count":2,"max":[4.125],"min":[0.0],"type":"SCALAR","name":"accessorAnimationInput"},{"bufferView":5,"byteOffset":144,"componentType":5126,"count":2,"type":"VEC3","name":"accessorAnimationScales"},{"bufferView":4,"byteOffset":56,"componentType":5126,"count":2,"max":[4.125],"min":[0.0],"type":"SCALAR","name":"accessorAnimationInput"},{"bufferView":5,"byteOffset":168,"componentType":5126,"count":2,"type":"VEC3","name":"accessorAnimationPositions"},{"bufferView":4,"byteOffset":64,"componentType":5126,"count":50,"max":[4.125],"min":[0.0],"type":"SCALAR","name":"accessorAnimationInput"},{"bufferView":6,"componentType":5126,"count":50,"type":"VEC4","name":"accessorAnimationRotations"},{"bufferView":4,"byteOffset":264,"componentType":5126,"count":50,"max":[4.125],"min":[0.0],"type":"SCALAR","name":"accessorAnimationInput"},{"bufferView":5,"byteOffset":192,"componentType":5126,"count":50,"type":"VEC3","name":"accessorAnimationPositions"},{"bufferView":4,"byteOffset":464,"componentType":5126,"count":51,"max":[4.125],"min":[0.0],"type":"SCALAR","name":"accessorAnimationInput"},{"bufferView":6,"byteOffset":800,"componentType":5126,"count":51,"type":"VEC4","name":"accessorAnimationRotations"},{"bufferView":4,"byteOffset":668,"componentType":5126,"count":51,"max":[4.125],"min":[0.0],"type":"SCALAR","name":"accessorAnimationInput"},{"bufferView":5,"byteOffset":792,"componentType":5126,"count":51,"type":"VEC3","name":"accessorAnimationPositions"}],"bufferViews":[{"buffer":0,"byteLength":152592,"name":"bufferViewScalar"},{"buffer":0,"byteOffset":152592,"byteLength":493704,"byteStride":12,"name":"bufferViewFloatVec3"},{"buffer":0,"byteOffset":646296,"byteLength":329136,"byteStride":16,"name":"bufferViewFloatVec4"},{"buffer":0,"byteOffset":975432,"byteLength":164568,"byteStride":8,"name":"bufferViewFloatVec2"},{"buffer":0,"byteOffset":1140000,"byteLength":872,"name":"bufferViewAnimationFloatScalar"},{"buffer":0,"byteOffset":1140872,"byteLength":1404,"name":"bufferViewAnimationFloatVec3"},{"buffer":0,"byteOffset":1142276,"byteLength":1616,"name":"bufferViewAnimationFloatVec4"}],"buffers":[{"uri":"sicBo_00.bin","byteLength":1143892}],"materials":[{"pbrMetallicRoughness":{"baseColorFactor":[0.0053,0.0824,0.10225,0.227272749],"metallicFactor":0.0,"roughnessFactor":0.201679826},"emissiveFactor":[0.0,0.0,0.0],"alphaMode":"BLEND","name":"blinn2"},{"pbrMetallicRoughness":{"baseColorFactor":[1.0,1.0,1.0,1.0],"baseColorTexture":{"index":0,"texCoord":0},"metallicFactor":0.0,"roughnessFactor":0.2581639},"emissiveFactor":[0.0,0.0,0.0],"alphaMode":"BLEND","name":"border"},{"pbrMetallicRoughness":{"baseColorFactor":[0.4364,0.29955,0.0,1.0],"metallicFactor":0.0,"roughnessFactor":0.201679826},"emissiveFactor":[0.0,0.0,0.0],"alphaMode":"OPAQUE","name":"goldenMaterial"},{"pbrMetallicRoughness":{"baseColorFactor":[0.0236006528,0.1485,0.000890997355,1.0],"metallicFactor":0.0,"roughnessFactor":0.201679826},"emissiveFactor":[0.0,0.0,0.0],"alphaMode":"OPAQUE","name":"pusher"},{"pbrMetallicRoughness":{"baseColorFactor":[1.0,1.0,1.0,1.0],"baseColorTexture":{"index":1,"texCoord":0},"metallicFactor":0.0,"roughnessFactor":0.450053632},"emissiveFactor":[0.0,0.0,0.0],"alphaMode":"BLEND","name":"shadowMat"},{"pbrMetallicRoughness":{"baseColorFactor":[0.29,0.0,0.0235141553,1.0],"metallicFactor":0.0,"roughnessFactor":0.215245664},"emissiveFactor":[0.0,0.0,0.0],"alphaMode":"OPAQUE","name":"diceMat"},{"pbrMetallicRoughness":{"baseColorFactor":[0.5,0.5,0.5,1.0],"metallicFactor":0.0,"roughnessFactor":0.2581639},"emissiveFactor":[0.0,0.0,0.0],"alphaMode":"OPAQUE","name":"dicePintsMat"}],"textures":[{"sampler":0,"source":0,"name":"border_baseColor.png"},{"sampler":1,"source":1,"name":"shadowMat_baseColor.png"}],"images":[{"uri":"border_baseColor.png"},{"uri":"shadowMat_baseColor.png"}],"samplers":[{"magFilter":9729,"minFilter":9987,"wrapS":10497,"wrapT":10497},{"magFilter":9729,"minFilter":9987,"wrapS":10497,"wrapT":10497}],"animations":[{"channels":[{"sampler":0,"target":{"node":0,"path":"translation"}},{"sampler":1,"target":{"node":1,"path":"scale"}},{"sampler":2,"target":{"node":1,"path":"translation"}},{"sampler":3,"target":{"node":2,"path":"scale"}},{"sampler":4,"target":{"node":4,"path":"scale"}},{"sampler":5,"target":{"node":4,"path":"translation"}},{"sampler":6,"target":{"node":5,"path":"scale"}},{"sampler":7,"target":{"node":5,"path":"translation"}},{"sampler":8,"target":{"node":6,"path":"rotation"}},{"sampler":9,"target":{"node":6,"path":"translation"}},{"sampler":10,"target":{"node":9,"path":"rotation"}},{"sampler":11,"target":{"node":9,"path":"translation"}}],"samplers":[{"input":45,"interpolation":"LINEAR","output":46},{"input":47,"interpolation":"LINEAR","output":48},{"input":49,"interpolation":"LINEAR","output":50},{"input":51,"interpolation":"LINEAR","output":52},{"input":53,"interpolation":"LINEAR","output":54},{"input":55,"interpolation":"LINEAR","output":56},{"input":57,"interpolation":"LINEAR","output":58},{"input":59,"interpolation":"LINEAR","output":60},{"input":61,"interpolation":"LINEAR","output":62},{"input":63,"interpolation":"LINEAR","output":64},{"input":65,"interpolation":"LINEAR","output":66},{"input":67,"interpolation":"LINEAR","output":68}],"name":"Animation"}]}