{"asset":{"version":"2.0","generator":"babylon.js glTF exporter for maya 2018 v20190722.2"},"scene":0,"scenes":[{"nodes":[0],"extensions":{}}],"nodes":[{"children":[1,15,16,17,18,19],"translation":[0.0,0.0,0.0],"rotation":[0.0,0.0,0.0,1.0],"scale":[20.0,20.0,20.0],"name":"root"},{"children":[2,3,7,8,9,10,11],"translation":[0.0,0.0,0.0],"rotation":[0.0,0.0,0.0,1.0],"scale":[0.05,0.05,0.05],"name":"main"},{"mesh":0,"translation":[0.0,222.3,0.0],"rotation":[0.0,0.0,0.0,1.0],"scale":[25.0,25.0,25.0],"name":"glass"},{"children":[4],"mesh":1,"translation":[50.0,15.0,0.0],"rotation":[0.0,0.0,0.0,1.0],"scale":[1.0,1.0,1.0],"name":"DICE_1"},{"children":[5,6],"mesh":2,"translation":[0.0,0.0,0.0],"rotation":[0.0,0.0,0.0,1.0],"scale":[1.0,1.0,1.0],"name":"SELECT_FACE_1"},{"mesh":3,"translation":[0.0,0.0,0.0],"rotation":[0.0,0.0,0.0,1.0],"scale":[1.0,1.0,1.0],"name":"pointsDice1"},{"mesh":4,"translation":[0.0,0.0,0.0],"rotation":[0.0,0.0,0.0,1.0],"scale":[1.0,1.0,1.0],"name":"dice1"},{"mesh":5,"translation":[0.0,4.0,0.0],"rotation":[0.0,0.0,0.0,1.0],"scale":[7.56288052,1.96828473,7.56288052],"name":"shadow"},{"mesh":6,"translation":[0.0,12.9697638,6.77626358E-21],"rotation":[0.0,0.0,0.0,1.0],"scale":[1.80836773,0.0222278554,1.80836773],"name":"pusher"},{"mesh":7,"translation":[0.0,10.0,0.0],"rotation":[0.0,0.0,0.0,1.0],"scale":[1.18935883,1.0,1.18935883],"name":"frame"},{"mesh":8,"translation":[0.0,0.0,0.0],"rotation":[0.0,0.0,0.0,1.0],"scale":[1.0,1.0,1.0],"name":"goldFrame"},{"children":[12],"mesh":9,"translation":[-50.0,15.0,0.0],"rotation":[0.0,0.0,0.0,1.0],"scale":[1.0,1.0,1.0],"name":"DICE_2"},{"children":[13,14],"mesh":10,"translation":[0.0,0.0,0.0],"rotation":[0.0,0.0,0.0,1.0],"scale":[1.0,1.0,1.0],"name":"SELECT_FACE_2"},{"mesh":11,"translation":[0.0,0.0,0.0],"rotation":[0.0,0.0,0.0,1.0],"scale":[1.0,1.0,1.0],"name":"pointsDice2"},{"mesh":12,"translation":[0.0,0.0,0.0],"rotation":[0.0,0.0,0.0,1.0],"scale":[1.0,1.0,1.0],"name":"dice2"},{"mesh":13,"translation":[0.0,-0.5,0.0],"rotation":[0.0,0.0,0.0,1.0],"scale":[1.0,1.0,1.0],"name":"goldMenuFrame"},{"mesh":14,"translation":[0.0,-0.611173034,0.0],"rotation":[0.0,0.0,0.0,1.0],"scale":[1.0,1.0,1.0],"name":"glasses"},{"mesh":15,"translation":[0.0,-0.5,0.0],"rotation":[0.0,0.0,0.0,1.0],"scale":[1.0,1.0,1.0],"name":"goldDicesFrame"},{"mesh":16,"translation":[0.0,-0.5,0.0],"rotation":[0.0,0.0,0.0,1.0],"scale":[1.0,1.0,1.0],"name":"dicesBaseColor"},{"camera":0,"translation":[-418.558,10.0,942.2143],"rotation":[0.119501844,-0.214812085,0.0264929216,0.9689547],"scale":[1.0,1.0,1.0],"name":"persp1"}],"cameras":[{"perspective":{"yfov":0.6605947,"zfar":10000.0,"znear":0.1},"type":"perspective","name":"persp1"}],"meshes":[{"primitives":[{"attributes":{"POSITION":1,"NORMAL":2,"TANGENT":3,"TEXCOORD_0":4},"indices":0,"mode":4,"material":0}],"name":"glass"},{"primitives":[{"attributes":{"POSITION":6,"NORMAL":7,"TANGENT":8,"TEXCOORD_0":9},"indices":5,"mode":4,"material":1}],"name":"DICE_1"},{"primitives":[{"attributes":{"POSITION":11,"NORMAL":12,"TANGENT":13,"TEXCOORD_0":14},"indices":10,"mode":4,"material":2}],"name":"SELECT_FACE_1"},{"primitives":[{"attributes":{"POSITION":16,"NORMAL":17,"TANGENT":18,"TEXCOORD_0":19},"indices":15,"mode":4,"material":3}],"name":"pointsDice1"},{"primitives":[{"attributes":{"POSITION":21,"NORMAL":22,"TANGENT":23,"TEXCOORD_0":24},"indices":20,"mode":4,"material":4}],"name":"dice1"},{"primitives":[{"attributes":{"POSITION":26,"NORMAL":27,"TANGENT":28,"TEXCOORD_0":29},"indices":25,"mode":4,"material":5}],"name":"shadow"},{"primitives":[{"attributes":{"POSITION":31,"NORMAL":32,"TANGENT":33,"TEXCOORD_0":34},"indices":30,"mode":4,"material":6}],"name":"pusher"},{"primitives":[{"attributes":{"POSITION":36,"NORMAL":37,"TANGENT":38,"TEXCOORD_0":39},"indices":35,"mode":4,"material":7}],"name":"frame"},{"primitives":[{"attributes":{"POSITION":41,"NORMAL":42,"TANGENT":43,"TEXCOORD_0":44},"indices":40,"mode":4,"material":8}],"name":"goldFrame"},{"primitives":[{"attributes":{"POSITION":46,"NORMAL":47,"TANGENT":48,"TEXCOORD_0":49},"indices":45,"mode":4,"material":1}],"name":"DICE_2"},{"primitives":[{"attributes":{"POSITION":51,"NORMAL":52,"TANGENT":53,"TEXCOORD_0":54},"indices":50,"mode":4,"material":2}],"name":"SELECT_FACE_2"},{"primitives":[{"attributes":{"POSITION":56,"NORMAL":57,"TANGENT":58,"TEXCOORD_0":59},"indices":55,"mode":4,"material":3}],"name":"pointsDice2"},{"primitives":[{"attributes":{"POSITION":61,"NORMAL":62,"TANGENT":63,"TEXCOORD_0":64},"indices":60,"mode":4,"material":4}],"name":"dice2"},{"primitives":[{"attributes":{"POSITION":66,"NORMAL":67,"TANGENT":68,"TEXCOORD_0":69},"indices":65,"mode":4,"material":2}],"name":"goldMenuFrame"},{"primitives":[{"attributes":{"POSITION":71,"NORMAL":72,"TANGENT":73,"TEXCOORD_0":74},"indices":70,"mode":4,"material":2}],"name":"glasses"},{"primitives":[{"attributes":{"POSITION":76,"NORMAL":77,"TANGENT":78,"TEXCOORD_0":79},"indices":75,"mode":4,"material":2}],"name":"goldDicesFrame"},{"primitives":[{"attributes":{"POSITION":81,"NORMAL":82,"TANGENT":83,"TEXCOORD_0":84},"indices":80,"mode":4,"material":3}],"name":"dicesBaseColor"}],"accessors":[{"bufferView":0,"componentType":5123,"count":5280,"type":"SCALAR","name":"accessorIndices"},{"bufferView":1,"componentType":5126,"count":1220,"max":[7.0,7.0,7.000002],"min":[-7.00000238,-8.404102,-7.00000429],"type":"VEC3","name":"accessorPositions"},{"bufferView":1,"byteOffset":14640,"componentType":5126,"count":1220,"type":"VEC3","name":"accessorNormals"},{"bufferView":2,"componentType":5126,"count":1220,"type":"VEC4","name":"accessorTangents"},{"bufferView":3,"componentType":5126,"count":1220,"type":"VEC2","name":"accessorUVs"},{"bufferView":0,"byteOffset":10560,"componentType":5123,"count":36,"type":"SCALAR","name":"accessorIndices"},{"bufferView":1,"byteOffset":29280,"componentType":5126,"count":24,"max":[50.8879547,92.9758453,51.64846],"min":[-52.35684,-9.39999,-51.3795929],"type":"VEC3","name":"accessorPositions"},{"bufferView":1,"byteOffset":29568,"componentType":5126,"count":24,"type":"VEC3","name":"accessorNormals"},{"bufferView":2,"byteOffset":19520,"componentType":5126,"count":24,"type":"VEC4","name":"accessorTangents"},{"bufferView":3,"byteOffset":9760,"componentType":5126,"count":24,"type":"VEC2","name":"accessorUVs"},{"bufferView":0,"byteOffset":10632,"componentType":5123,"count":36,"type":"SCALAR","name":"accessorIndices"},{"bufferView":1,"byteOffset":29856,"componentType":5126,"count":24,"max":[4.09524345,46.2685623,3.95906258],"min":[-3.90475845,38.2685623,-4.040938],"type":"VEC3","name":"accessorPositions"},{"bufferView":1,"byteOffset":30144,"componentType":5126,"count":24,"type":"VEC3","name":"accessorNormals"},{"bufferView":2,"byteOffset":19904,"componentType":5126,"count":24,"type":"VEC4","name":"accessorTangents"},{"bufferView":3,"byteOffset":9952,"componentType":5126,"count":24,"type":"VEC2","name":"accessorUVs"},{"bufferView":0,"byteOffset":10704,"componentType":5123,"count":9072,"type":"SCALAR","name":"accessorIndices"},{"bufferView":1,"byteOffset":30432,"componentType":5126,"count":3405,"max":[42.8722649,84.74892,42.6615868],"min":[-42.6394539,-0.37613678,-42.8045158],"type":"VEC3","name":"accessorPositions"},{"bufferView":1,"byteOffset":71292,"componentType":5126,"count":3405,"type":"VEC3","name":"accessorNormals"},{"bufferView":2,"byteOffset":20288,"componentType":5126,"count":3405,"type":"VEC4","name":"accessorTangents"},{"bufferView":3,"byteOffset":10144,"componentType":5126,"count":3405,"type":"VEC2","name":"accessorUVs"},{"bufferView":0,"byteOffset":28848,"componentType":5123,"count":12672,"type":"SCALAR","name":"accessorIndices"},{"bufferView":1,"byteOffset":112152,"componentType":5126,"count":3882,"max":[45.5673752,87.74076,45.4311867],"min":[-45.3769226,-3.20362854,-45.5130844],"type":"VEC3","name":"accessorPositions"},{"bufferView":1,"byteOffset":158736,"componentType":5126,"count":3882,"type":"VEC3","name":"accessorNormals"},{"bufferView":2,"byteOffset":74768,"componentType":5126,"count":3882,"type":"VEC4","name":"accessorTangents"},{"bufferView":3,"byteOffset":37384,"componentType":5126,"count":3882,"type":"VEC2","name":"accessorUVs"},{"bufferView":0,"byteOffset":54192,"componentType":5123,"count":6,"type":"SCALAR","name":"accessorIndices"},{"bufferView":1,"byteOffset":205320,"componentType":5126,"count":4,"max":[50.0,3.05175781E-05,50.0],"min":[-50.0,3.05175781E-05,-50.0],"type":"VEC3","name":"accessorPositions"},{"bufferView":1,"byteOffset":205368,"componentType":5126,"count":4,"type":"VEC3","name":"accessorNormals"},{"bufferView":2,"byteOffset":136880,"componentType":5126,"count":4,"type":"VEC4","name":"accessorTangents"},{"bufferView":3,"byteOffset":68440,"componentType":5126,"count":4,"type":"VEC2","name":"accessorUVs"},{"bufferView":0,"byteOffset":54204,"componentType":5123,"count":720,"type":"SCALAR","name":"accessorIndices"},{"bufferView":1,"byteOffset":205416,"componentType":5126,"count":244,"max":[100.0,100.000046,100.000015],"min":[-100.000038,-100.0,-100.000061],"type":"VEC3","name":"accessorPositions"},{"bufferView":1,"byteOffset":208344,"componentType":5126,"count":244,"type":"VEC3","name":"accessorNormals"},{"bufferView":2,"byteOffset":136944,"componentType":5126,"count":244,"type":"VEC4","name":"accessorTangents"},{"bufferView":3,"byteOffset":68472,"componentType":5126,"count":244,"type":"VEC2","name":"accessorUVs"},{"bufferView":0,"byteOffset":55644,"componentType":5123,"count":5952,"type":"SCALAR","name":"accessorIndices"},{"bufferView":1,"byteOffset":211272,"componentType":5126,"count":992,"max":[276.695374,6.25,270.432251],"min":[-275.91626,-6.25,-259.49115],"type":"VEC3","name":"accessorPositions"},{"bufferView":1,"byteOffset":223176,"componentType":5126,"count":992,"type":"VEC3","name":"accessorNormals"},{"bufferView":2,"byteOffset":140848,"componentType":5126,"count":992,"type":"VEC4","name":"accessorTangents"},{"bufferView":3,"byteOffset":70424,"componentType":5126,"count":992,"type":"VEC2","name":"accessorUVs"},{"bufferView":0,"byteOffset":67548,"componentType":5123,"count":20256,"type":"SCALAR","name":"accessorIndices"},{"bufferView":1,"byteOffset":235080,"componentType":5126,"count":3376,"max":[348.4554,51.3066559,339.544037],"min":[-347.593475,4.899971,-328.3982],"type":"VEC3","name":"accessorPositions"},{"bufferView":1,"byteOffset":275592,"componentType":5126,"count":3376,"type":"VEC3","name":"accessorNormals"},{"bufferView":2,"byteOffset":156720,"componentType":5126,"count":3376,"type":"VEC4","name":"accessorTangents"},{"bufferView":3,"byteOffset":78360,"componentType":5126,"count":3376,"type":"VEC2","name":"accessorUVs"},{"bufferView":0,"byteOffset":108060,"componentType":5123,"count":36,"type":"SCALAR","name":"accessorIndices"},{"bufferView":1,"byteOffset":316104,"componentType":5126,"count":24,"max":[53.13217,91.79775,51.86654],"min":[-50.1179543,-8.202252,-51.38359],"type":"VEC3","name":"accessorPositions"},{"bufferView":1,"byteOffset":316392,"componentType":5126,"count":24,"type":"VEC3","name":"accessorNormals"},{"bufferView":2,"byteOffset":210736,"componentType":5126,"count":24,"type":"VEC4","name":"accessorTangents"},{"bufferView":3,"byteOffset":105368,"componentType":5126,"count":24,"type":"VEC2","name":"accessorUVs"},{"bufferView":0,"byteOffset":108132,"componentType":5123,"count":36,"type":"SCALAR","name":"accessorIndices"},{"bufferView":1,"byteOffset":316680,"componentType":5126,"count":24,"max":[10.1640615,52.2574844,10.0299692],"min":[-9.835939,32.2574844,-9.970032],"type":"VEC3","name":"accessorPositions"},{"bufferView":1,"byteOffset":316968,"componentType":5126,"count":24,"type":"VEC3","name":"accessorNormals"},{"bufferView":2,"byteOffset":211120,"componentType":5126,"count":24,"type":"VEC4","name":"accessorTangents"},{"bufferView":3,"byteOffset":105560,"componentType":5126,"count":24,"type":"VEC2","name":"accessorUVs"},{"bufferView":0,"byteOffset":108204,"componentType":5123,"count":9072,"type":"SCALAR","name":"accessorIndices"},{"bufferView":1,"byteOffset":317256,"componentType":5126,"count":3400,"max":[42.9001,84.7310944,42.7435722],"min":[-42.6116142,-0.393966675,-42.7225342],"type":"VEC3","name":"accessorPositions"},{"bufferView":1,"byteOffset":358056,"componentType":5126,"count":3400,"type":"VEC3","name":"accessorNormals"},{"bufferView":2,"byteOffset":211504,"componentType":5126,"count":3400,"type":"VEC4","name":"accessorTangents"},{"bufferView":3,"byteOffset":105752,"componentType":5126,"count":3400,"type":"VEC2","name":"accessorUVs"},{"bufferView":0,"byteOffset":126348,"componentType":5123,"count":12672,"type":"SCALAR","name":"accessorIndices"},{"bufferView":1,"byteOffset":398856,"componentType":5126,"count":3882,"max":[45.59521,87.72293,45.5131721],"min":[-45.3490868,-3.22146034,-45.4311066],"type":"VEC3","name":"accessorPositions"},{"bufferView":1,"byteOffset":445440,"componentType":5126,"count":3882,"type":"VEC3","name":"accessorNormals"},{"bufferView":2,"byteOffset":265904,"componentType":5126,"count":3882,"type":"VEC4","name":"accessorTangents"},{"bufferView":3,"byteOffset":132952,"componentType":5126,"count":3882,"type":"VEC2","name":"accessorUVs"},{"bufferView":0,"byteOffset":151692,"componentType":5123,"count":35322,"type":"SCALAR","name":"accessorIndices"},{"bufferView":1,"byteOffset":492024,"componentType":5126,"count":18288,"max":[54.9646835,1.458077,46.1984863],"min":[-55.12041,-0.00163298845,-15.52672],"type":"VEC3","name":"accessorPositions"},{"bufferView":1,"byteOffset":711480,"componentType":5126,"count":18288,"type":"VEC3","name":"accessorNormals"},{"bufferView":2,"byteOffset":328016,"componentType":5126,"count":18288,"type":"VEC4","name":"accessorTangents"},{"bufferView":3,"byteOffset":164008,"componentType":5126,"count":18288,"type":"VEC2","name":"accessorUVs"},{"bufferView":0,"byteOffset":222336,"componentType":5123,"count":2673,"type":"SCALAR","name":"accessorIndices"},{"bufferView":1,"byteOffset":930936,"componentType":5126,"count":977,"max":[54.8818436,0.685132,46.11599],"min":[-54.92134,0.684868,-15.3907013],"type":"VEC3","name":"accessorPositions"},{"bufferView":1,"byteOffset":942660,"componentType":5126,"count":977,"type":"VEC3","name":"accessorNormals"},{"bufferView":2,"byteOffset":620624,"componentType":5126,"count":977,"type":"VEC4","name":"accessorTangents"},{"bufferView":3,"byteOffset":310312,"componentType":5126,"count":977,"type":"VEC2","name":"accessorUVs"},{"bufferView":0,"byteOffset":227684,"componentType":5123,"count":116301,"type":"SCALAR","name":"accessorIndices"},{"bufferView":1,"byteOffset":954384,"componentType":5126,"count":60108,"max":[54.0052032,1.428621,45.4907722],"min":[-54.02982,-0.001633,-14.13122],"type":"VEC3","name":"accessorPositions"},{"bufferView":1,"byteOffset":1675680,"componentType":5126,"count":60108,"type":"VEC3","name":"accessorNormals"},{"bufferView":2,"byteOffset":636256,"componentType":5126,"count":60108,"type":"VEC4","name":"accessorTangents"},{"bufferView":3,"byteOffset":318128,"componentType":5126,"count":60108,"type":"VEC2","name":"accessorUVs"},{"bufferView":0,"byteOffset":460288,"componentType":5123,"count":3480,"type":"SCALAR","name":"accessorIndices"},{"bufferView":1,"byteOffset":2396976,"componentType":5126,"count":1272,"max":[54.0052071,0.713154,45.4907722],"min":[-54.0298233,0.713154,14.2459822],"type":"VEC3","name":"accessorPositions"},{"bufferView":1,"byteOffset":2412240,"componentType":5126,"count":1272,"type":"VEC3","name":"accessorNormals"},{"bufferView":2,"byteOffset":1597984,"componentType":5126,"count":1272,"type":"VEC4","name":"accessorTangents"},{"bufferView":3,"byteOffset":798992,"componentType":5126,"count":1272,"type":"VEC2","name":"accessorUVs"},{"bufferView":4,"componentType":5126,"count":19,"max":[2.38333344],"min":[0.0166666675],"type":"SCALAR","name":"accessorAnimationInput"},{"bufferView":5,"componentType":5126,"count":19,"type":"VEC3","name":"accessorAnimationPositions"},{"bufferView":4,"byteOffset":76,"componentType":5126,"count":19,"max":[2.38333344],"min":[0.0166666675],"type":"SCALAR","name":"accessorAnimationInput"},{"bufferView":6,"componentType":5126,"count":19,"type":"VEC4","name":"accessorAnimationRotations"},{"bufferView":4,"byteOffset":152,"componentType":5126,"count":2,"max":[2.48333335],"min":[0.0],"type":"SCALAR","name":"accessorAnimationInput"},{"bufferView":5,"byteOffset":228,"componentType":5126,"count":2,"type":"VEC3","name":"accessorAnimationPositions"},{"bufferView":4,"byteOffset":160,"componentType":5126,"count":2,"max":[2.48333335],"min":[0.0],"type":"SCALAR","name":"accessorAnimationInput"},{"bufferView":6,"byteOffset":304,"componentType":5126,"count":2,"type":"VEC4","name":"accessorAnimationRotations"},{"bufferView":4,"byteOffset":168,"componentType":5126,"count":22,"max":[2.4666667],"min":[0.05],"type":"SCALAR","name":"accessorAnimationInput"},{"bufferView":5,"byteOffset":252,"componentType":5126,"count":22,"type":"VEC3","name":"accessorAnimationPositions"},{"bufferView":4,"byteOffset":256,"componentType":5126,"count":22,"max":[2.4666667],"min":[0.05],"type":"SCALAR","name":"accessorAnimationInput"},{"bufferView":6,"byteOffset":336,"componentType":5126,"count":22,"type":"VEC4","name":"accessorAnimationRotations"},{"bufferView":4,"byteOffset":344,"componentType":5126,"count":2,"max":[2.48333335],"min":[0.0],"type":"SCALAR","name":"accessorAnimationInput"},{"bufferView":5,"byteOffset":516,"componentType":5126,"count":2,"type":"VEC3","name":"accessorAnimationPositions"},{"bufferView":4,"byteOffset":352,"componentType":5126,"count":2,"max":[2.48333335],"min":[0.0],"type":"SCALAR","name":"accessorAnimationInput"},{"bufferView":6,"byteOffset":688,"componentType":5126,"count":2,"type":"VEC4","name":"accessorAnimationRotations"}],"bufferViews":[{"buffer":0,"byteLength":467248,"name":"bufferViewScalar"},{"buffer":0,"byteOffset":467248,"byteLength":2427504,"byteStride":12,"name":"bufferViewFloatVec3"},{"buffer":0,"byteOffset":2894752,"byteLength":1618336,"byteStride":16,"name":"bufferViewFloatVec4"},{"buffer":0,"byteOffset":4513088,"byteLength":809168,"byteStride":8,"name":"bufferViewFloatVec2"},{"buffer":0,"byteOffset":5322256,"byteLength":360,"name":"bufferViewAnimationFloatScalar"},{"buffer":0,"byteOffset":5322616,"byteLength":540,"name":"bufferViewAnimationFloatVec3"},{"buffer":0,"byteOffset":5323156,"byteLength":720,"name":"bufferViewAnimationFloatVec4"}],"buffers":[{"uri":"sicBo.bin","byteLength":5323876}],"materials":[{"pbrMetallicRoughness":{"baseColorFactor":[0.0053,0.0824,0.10225,0.227272749],"metallicFactor":0.0,"roughnessFactor":0.201679826},"emissiveFactor":[0.0,0.0,0.0],"alphaMode":"BLEND","name":"glassMat"},{"pbrMetallicRoughness":{"baseColorFactor":[0.25,0.25,0.25,0.0],"metallicFactor":0.0,"roughnessFactor":0.450053632},"emissiveFactor":[0.0,0.0,0.0],"alphaMode":"BLEND","name":"fakeMat"},{"pbrMetallicRoughness":{"baseColorFactor":[0.25,0.25,0.25,1.0],"metallicFactor":0.0,"roughnessFactor":0.450053632},"emissiveFactor":[0.0,0.0,0.0],"alphaMode":"OPAQUE","name":"lambert1"},{"pbrMetallicRoughness":{"baseColorFactor":[0.5,0.5,0.5,1.0],"metallicFactor":0.0,"roughnessFactor":0.2581639},"emissiveFactor":[0.2792208,0.2792208,0.2792208],"alphaMode":"OPAQUE","name":"dicePintsMat"},{"pbrMetallicRoughness":{"baseColorFactor":[0.49025,0.0,0.0171,1.0],"metallicFactor":0.0,"roughnessFactor":0.241855934},"emissiveFactor":[0.10187012,0.0,0.00355324661],"alphaMode":"OPAQUE","name":"diceMat"},{"pbrMetallicRoughness":{"baseColorFactor":[1.0,1.0,1.0,1.0],"baseColorTexture":{"index":0,"texCoord":0},"metallicFactor":0.0,"roughnessFactor":0.450053632},"emissiveFactor":[0.0,0.0,0.0],"alphaMode":"BLEND","name":"shadowMat"},{"pbrMetallicRoughness":{"baseColorFactor":[1.0,1.0,1.0,1.0],"baseColorTexture":{"index":1,"texCoord":0},"metallicFactor":0.0,"roughnessFactor":0.201679826},"emissiveFactor":[0.0,0.0,0.0],"alphaMode":"OPAQUE","name":"pusherMat"},{"pbrMetallicRoughness":{"baseColorFactor":[1.0,1.0,1.0,1.0],"baseColorTexture":{"index":3,"texCoord":0},"metallicFactor":0.0,"roughnessFactor":0.225380808},"emissiveTexture":{"index":2,"texCoord":0},"emissiveFactor":[1.0,1.0,1.0],"alphaMode":"OPAQUE","name":"frameMat"},{"pbrMetallicRoughness":{"baseColorFactor":[0.3961039,0.271890253,0.0,1.0],"metallicFactor":0.0,"roughnessFactor":0.208839417},"emissiveFactor":[0.0,0.0,0.0],"alphaMode":"OPAQUE","name":"goldenMat"}],"textures":[{"sampler":0,"source":0,"name":"shadowMat_baseColor.png"},{"sampler":1,"source":1,"name":"pusherMat_baseColor.jpg"},{"sampler":2,"source":2,"name":"frameMat_emissive.jpg"},{"sampler":3,"source":3,"name":"frameMat_baseColor.jpg"}],"images":[{"uri":"shadowMat_baseColor.png"},{"uri":"pusherMat_baseColor.jpg"},{"uri":"frameMat_emissive.jpg"},{"uri":"frameMat_baseColor.jpg"}],"samplers":[{"magFilter":9729,"minFilter":9987,"wrapS":10497,"wrapT":10497},{"magFilter":9729,"minFilter":9987,"wrapS":10497,"wrapT":10497},{"magFilter":9729,"minFilter":9987,"wrapS":10497,"wrapT":10497},{"magFilter":9729,"minFilter":9987,"wrapS":10497,"wrapT":10497}],"animations":[{"channels":[{"sampler":0,"target":{"node":3,"path":"translation"}},{"sampler":1,"target":{"node":3,"path":"rotation"}},{"sampler":2,"target":{"node":4,"path":"translation"}},{"sampler":3,"target":{"node":4,"path":"rotation"}},{"sampler":4,"target":{"node":11,"path":"translation"}},{"sampler":5,"target":{"node":11,"path":"rotation"}},{"sampler":6,"target":{"node":12,"path":"translation"}},{"sampler":7,"target":{"node":12,"path":"rotation"}}],"samplers":[{"input":85,"interpolation":"LINEAR","output":86},{"input":87,"interpolation":"LINEAR","output":88},{"input":89,"interpolation":"LINEAR","output":90},{"input":91,"interpolation":"LINEAR","output":92},{"input":93,"interpolation":"LINEAR","output":94},{"input":95,"interpolation":"LINEAR","output":96},{"input":97,"interpolation":"LINEAR","output":98},{"input":99,"interpolation":"LINEAR","output":100}],"name":"pushDices"}]}