{"asset":{"version":"2.0","generator":"babylon.js glTF exporter for maya 2018 v20190722.2"},"scene":0,"scenes":[{"nodes":[0],"extensions":{}}],"nodes":[{"children":[1,15],"translation":[0.0,0.0,0.0],"rotation":[0.0,0.0,0.0,1.0],"scale":[20.0,20.0,20.0],"name":"root"},{"children":[2,3,7,8,9,10,11],"translation":[0.0,0.0,0.0],"rotation":[0.0,0.0,0.0,1.0],"scale":[0.05,0.05,0.05],"name":"main"},{"mesh":0,"translation":[0.0,222.3,0.0],"rotation":[0.0,0.0,0.0,1.0],"scale":[25.0,25.0,25.0],"name":"glass"},{"children":[4],"mesh":1,"translation":[50.0,15.0,0.0],"rotation":[0.0,0.0,0.0,1.0],"scale":[1.0,1.0,1.0],"name":"DICE_1"},{"children":[5,6],"mesh":2,"translation":[0.01,-6.503189E-06,-0.007377257],"rotation":[8.726646E-05,0.0,0.0,1.0],"scale":[1.0,1.0,1.0],"name":"SELECT_FACE_1"},{"mesh":3,"translation":[0.0,0.0,0.0],"rotation":[0.0,0.0,0.0,1.0],"scale":[1.0,1.0,1.0],"name":"pointsDice1"},{"mesh":4,"translation":[0.0,0.0,0.0],"rotation":[0.0,0.0,0.0,1.0],"scale":[1.0,1.0,1.0],"name":"dice1"},{"mesh":5,"translation":[0.0,4.0,0.0],"rotation":[0.0,0.0,0.0,1.0],"scale":[7.56288052,1.96828473,7.56288052],"name":"shadow"},{"mesh":6,"translation":[0.0,12.9697638,6.77626358E-21],"rotation":[0.0,0.0,0.0,1.0],"scale":[1.80836773,0.0222278554,1.80836773],"name":"pusher"},{"mesh":7,"translation":[0.0,10.0,0.0],"rotation":[0.0,0.0,0.0,1.0],"scale":[1.18935883,1.0,1.18935883],"name":"frame"},{"mesh":8,"translation":[0.0,0.0,0.0],"rotation":[0.0,0.0,0.0,1.0],"scale":[1.0,1.0,1.0],"name":"goldFrame"},{"children":[12],"mesh":9,"translation":[-50.0,15.0,0.0],"rotation":[0.0,0.0,0.0,1.0],"scale":[1.0,1.0,1.0],"name":"DICE_2"},{"children":[13,14],"mesh":10,"translation":[0.01,7.805089E-06,-0.00737414369],"rotation":[8.726646E-05,0.0,0.0,1.0],"scale":[1.0,1.0,1.0],"name":"SELECT_FACE_2"},{"mesh":11,"translation":[0.0,0.0,0.0],"rotation":[0.0,0.0,0.0,1.0],"scale":[1.0,1.0,1.0],"name":"pointsDice2"},{"mesh":12,"translation":[0.0,0.0,0.0],"rotation":[0.0,0.0,0.0,1.0],"scale":[1.0,1.0,1.0],"name":"dice2"},{"camera":0,"translation":[-418.558,10.0,942.2143],"rotation":[0.119501844,-0.214812085,0.0264929216,0.9689547],"scale":[1.0,1.0,1.0],"name":"persp1"}],"cameras":[{"perspective":{"yfov":0.6605947,"zfar":10000.0,"znear":0.1},"type":"perspective","name":"persp1"}],"meshes":[{"primitives":[{"attributes":{"POSITION":1,"NORMAL":2,"TANGENT":3,"TEXCOORD_0":4},"indices":0,"mode":4,"material":0}],"name":"glass"},{"primitives":[{"attributes":{"POSITION":6,"NORMAL":7,"TANGENT":8,"TEXCOORD_0":9},"indices":5,"mode":4,"material":1}],"name":"DICE_1"},{"primitives":[{"attributes":{"POSITION":11,"NORMAL":12,"TANGENT":13,"TEXCOORD_0":14},"indices":10,"mode":4,"material":2}],"name":"SELECT_FACE_1"},{"primitives":[{"attributes":{"POSITION":16,"NORMAL":17,"TANGENT":18,"TEXCOORD_0":19},"indices":15,"mode":4,"material":3}],"name":"pointsDice1"},{"primitives":[{"attributes":{"POSITION":21,"NORMAL":22,"TANGENT":23,"TEXCOORD_0":24},"indices":20,"mode":4,"material":4}],"name":"dice1"},{"primitives":[{"attributes":{"POSITION":26,"NORMAL":27,"TANGENT":28,"TEXCOORD_0":29},"indices":25,"mode":4,"material":5}],"name":"shadow"},{"primitives":[{"attributes":{"POSITION":31,"NORMAL":32,"TANGENT":33,"TEXCOORD_0":34},"indices":30,"mode":4,"material":6}],"name":"pusher"},{"primitives":[{"attributes":{"POSITION":36,"NORMAL":37,"TANGENT":38,"TEXCOORD_0":39},"indices":35,"mode":4,"material":7}],"name":"frame"},{"primitives":[{"attributes":{"POSITION":41,"NORMAL":42,"TANGENT":43,"TEXCOORD_0":44},"indices":40,"mode":4,"material":8}],"name":"goldFrame"},{"primitives":[{"attributes":{"POSITION":46,"NORMAL":47,"TANGENT":48,"TEXCOORD_0":49},"indices":45,"mode":4,"material":1}],"name":"DICE_2"},{"primitives":[{"attributes":{"POSITION":51,"NORMAL":52,"TANGENT":53,"TEXCOORD_0":54},"indices":50,"mode":4,"material":2}],"name":"SELECT_FACE_2"},{"primitives":[{"attributes":{"POSITION":56,"NORMAL":57,"TANGENT":58,"TEXCOORD_0":59},"indices":55,"mode":4,"material":3}],"name":"pointsDice2"},{"primitives":[{"attributes":{"POSITION":61,"NORMAL":62,"TANGENT":63,"TEXCOORD_0":64},"indices":60,"mode":4,"material":4}],"name":"dice2"}],"accessors":[{"bufferView":0,"componentType":5123,"count":5280,"type":"SCALAR","name":"accessorIndices"},{"bufferView":1,"componentType":5126,"count":1220,"max":[7.0,7.0,7.000002],"min":[-7.00000238,-8.404102,-7.00000429],"type":"VEC3","name":"accessorPositions"},{"bufferView":1,"byteOffset":14640,"componentType":5126,"count":1220,"type":"VEC3","name":"accessorNormals"},{"bufferView":2,"componentType":5126,"count":1220,"type":"VEC4","name":"accessorTangents"},{"bufferView":3,"componentType":5126,"count":1220,"type":"VEC2","name":"accessorUVs"},{"bufferView":0,"byteOffset":10560,"componentType":5123,"count":36,"type":"SCALAR","name":"accessorIndices"},{"bufferView":1,"byteOffset":29280,"componentType":5126,"count":24,"max":[50.8879547,92.9758453,51.64846],"min":[-52.35684,-9.39999,-51.3795929],"type":"VEC3","name":"accessorPositions"},{"bufferView":1,"byteOffset":29568,"componentType":5126,"count":24,"type":"VEC3","name":"accessorNormals"},{"bufferView":2,"byteOffset":19520,"componentType":5126,"count":24,"type":"VEC4","name":"accessorTangents"},{"bufferView":3,"byteOffset":9760,"componentType":5126,"count":24,"type":"VEC2","name":"accessorUVs"},{"bufferView":0,"byteOffset":10632,"componentType":5123,"count":36,"type":"SCALAR","name":"accessorIndices"},{"bufferView":1,"byteOffset":29856,"componentType":5126,"count":24,"max":[4.09524345,46.2685623,3.95906258],"min":[-3.90475845,38.2685623,-4.040938],"type":"VEC3","name":"accessorPositions"},{"bufferView":1,"byteOffset":30144,"componentType":5126,"count":24,"type":"VEC3","name":"accessorNormals"},{"bufferView":2,"byteOffset":19904,"componentType":5126,"count":24,"type":"VEC4","name":"accessorTangents"},{"bufferView":3,"byteOffset":9952,"componentType":5126,"count":24,"type":"VEC2","name":"accessorUVs"},{"bufferView":0,"byteOffset":10704,"componentType":5123,"count":9072,"type":"SCALAR","name":"accessorIndices"},{"bufferView":1,"byteOffset":30432,"componentType":5126,"count":3405,"max":[42.8722649,84.74892,42.6615868],"min":[-42.6394539,-0.37613678,-42.8045158],"type":"VEC3","name":"accessorPositions"},{"bufferView":1,"byteOffset":71292,"componentType":5126,"count":3405,"type":"VEC3","name":"accessorNormals"},{"bufferView":2,"byteOffset":20288,"componentType":5126,"count":3405,"type":"VEC4","name":"accessorTangents"},{"bufferView":3,"byteOffset":10144,"componentType":5126,"count":3405,"type":"VEC2","name":"accessorUVs"},{"bufferView":0,"byteOffset":28848,"componentType":5123,"count":12672,"type":"SCALAR","name":"accessorIndices"},{"bufferView":1,"byteOffset":112152,"componentType":5126,"count":3882,"max":[45.5673752,87.74076,45.4311867],"min":[-45.3769226,-3.20362854,-45.5130844],"type":"VEC3","name":"accessorPositions"},{"bufferView":1,"byteOffset":158736,"componentType":5126,"count":3882,"type":"VEC3","name":"accessorNormals"},{"bufferView":2,"byteOffset":74768,"componentType":5126,"count":3882,"type":"VEC4","name":"accessorTangents"},{"bufferView":3,"byteOffset":37384,"componentType":5126,"count":3882,"type":"VEC2","name":"accessorUVs"},{"bufferView":0,"byteOffset":54192,"componentType":5123,"count":600,"type":"SCALAR","name":"accessorIndices"},{"bufferView":1,"byteOffset":205320,"componentType":5126,"count":121,"max":[50.0,1.52587891E-05,50.0],"min":[-50.0,1.52587891E-05,-50.0],"type":"VEC3","name":"accessorPositions"},{"bufferView":1,"byteOffset":206772,"componentType":5126,"count":121,"type":"VEC3","name":"accessorNormals"},{"bufferView":2,"byteOffset":136880,"componentType":5126,"count":121,"type":"VEC4","name":"accessorTangents"},{"bufferView":3,"byteOffset":68440,"componentType":5126,"count":121,"type":"VEC2","name":"accessorUVs"},{"bufferView":0,"byteOffset":55392,"componentType":5123,"count":720,"type":"SCALAR","name":"accessorIndices"},{"bufferView":1,"byteOffset":208224,"componentType":5126,"count":244,"max":[100.0,100.000046,100.000015],"min":[-100.000038,-100.0,-100.000061],"type":"VEC3","name":"accessorPositions"},{"bufferView":1,"byteOffset":211152,"componentType":5126,"count":244,"type":"VEC3","name":"accessorNormals"},{"bufferView":2,"byteOffset":138816,"componentType":5126,"count":244,"type":"VEC4","name":"accessorTangents"},{"bufferView":3,"byteOffset":69408,"componentType":5126,"count":244,"type":"VEC2","name":"accessorUVs"},{"bufferView":0,"byteOffset":56832,"componentType":5123,"count":5952,"type":"SCALAR","name":"accessorIndices"},{"bufferView":1,"byteOffset":214080,"componentType":5126,"count":992,"max":[276.695374,6.25,270.432251],"min":[-275.91626,-6.25,-259.49115],"type":"VEC3","name":"accessorPositions"},{"bufferView":1,"byteOffset":225984,"componentType":5126,"count":992,"type":"VEC3","name":"accessorNormals"},{"bufferView":2,"byteOffset":142720,"componentType":5126,"count":992,"type":"VEC4","name":"accessorTangents"},{"bufferView":3,"byteOffset":71360,"componentType":5126,"count":992,"type":"VEC2","name":"accessorUVs"},{"bufferView":0,"byteOffset":68736,"componentType":5123,"count":20256,"type":"SCALAR","name":"accessorIndices"},{"bufferView":1,"byteOffset":237888,"componentType":5126,"count":3376,"max":[348.4554,51.3066559,339.544037],"min":[-347.593475,4.899971,-328.3982],"type":"VEC3","name":"accessorPositions"},{"bufferView":1,"byteOffset":278400,"componentType":5126,"count":3376,"type":"VEC3","name":"accessorNormals"},{"bufferView":2,"byteOffset":158592,"componentType":5126,"count":3376,"type":"VEC4","name":"accessorTangents"},{"bufferView":3,"byteOffset":79296,"componentType":5126,"count":3376,"type":"VEC2","name":"accessorUVs"},{"bufferView":0,"byteOffset":109248,"componentType":5123,"count":36,"type":"SCALAR","name":"accessorIndices"},{"bufferView":1,"byteOffset":318912,"componentType":5126,"count":24,"max":[53.13217,91.79775,51.86654],"min":[-50.1179543,-8.202252,-51.38359],"type":"VEC3","name":"accessorPositions"},{"bufferView":1,"byteOffset":319200,"componentType":5126,"count":24,"type":"VEC3","name":"accessorNormals"},{"bufferView":2,"byteOffset":212608,"componentType":5126,"count":24,"type":"VEC4","name":"accessorTangents"},{"bufferView":3,"byteOffset":106304,"componentType":5126,"count":24,"type":"VEC2","name":"accessorUVs"},{"bufferView":0,"byteOffset":109320,"componentType":5123,"count":36,"type":"SCALAR","name":"accessorIndices"},{"bufferView":1,"byteOffset":319488,"componentType":5126,"count":24,"max":[10.1640615,52.2574844,10.0299692],"min":[-9.835939,32.2574844,-9.970032],"type":"VEC3","name":"accessorPositions"},{"bufferView":1,"byteOffset":319776,"componentType":5126,"count":24,"type":"VEC3","name":"accessorNormals"},{"bufferView":2,"byteOffset":212992,"componentType":5126,"count":24,"type":"VEC4","name":"accessorTangents"},{"bufferView":3,"byteOffset":106496,"componentType":5126,"count":24,"type":"VEC2","name":"accessorUVs"},{"bufferView":0,"byteOffset":109392,"componentType":5123,"count":9072,"type":"SCALAR","name":"accessorIndices"},{"bufferView":1,"byteOffset":320064,"componentType":5126,"count":3402,"max":[42.9001,84.7310944,42.7435722],"min":[-42.6116142,-0.393966675,-42.7225342],"type":"VEC3","name":"accessorPositions"},{"bufferView":1,"byteOffset":360888,"componentType":5126,"count":3402,"type":"VEC3","name":"accessorNormals"},{"bufferView":2,"byteOffset":213376,"componentType":5126,"count":3402,"type":"VEC4","name":"accessorTangents"},{"bufferView":3,"byteOffset":106688,"componentType":5126,"count":3402,"type":"VEC2","name":"accessorUVs"},{"bufferView":0,"byteOffset":127536,"componentType":5123,"count":12672,"type":"SCALAR","name":"accessorIndices"},{"bufferView":1,"byteOffset":401712,"componentType":5126,"count":3882,"max":[45.59521,87.72293,45.5131721],"min":[-45.3490868,-3.22146034,-45.4311066],"type":"VEC3","name":"accessorPositions"},{"bufferView":1,"byteOffset":448296,"componentType":5126,"count":3882,"type":"VEC3","name":"accessorNormals"},{"bufferView":2,"byteOffset":267808,"componentType":5126,"count":3882,"type":"VEC4","name":"accessorTangents"},{"bufferView":3,"byteOffset":133904,"componentType":5126,"count":3882,"type":"VEC2","name":"accessorUVs"},{"bufferView":4,"componentType":5126,"count":19,"max":[2.38333344],"min":[0.0166666675],"type":"SCALAR","name":"accessorAnimationInput"},{"bufferView":5,"componentType":5126,"count":19,"type":"VEC3","name":"accessorAnimationPositions"},{"bufferView":4,"byteOffset":76,"componentType":5126,"count":19,"max":[2.38333344],"min":[0.0166666675],"type":"SCALAR","name":"accessorAnimationInput"},{"bufferView":6,"componentType":5126,"count":19,"type":"VEC4","name":"accessorAnimationRotations"},{"bufferView":4,"byteOffset":152,"componentType":5126,"count":2,"max":[2.48333335],"min":[0.0],"type":"SCALAR","name":"accessorAnimationInput"},{"bufferView":5,"byteOffset":228,"componentType":5126,"count":2,"type":"VEC3","name":"accessorAnimationPositions"},{"bufferView":4,"byteOffset":160,"componentType":5126,"count":2,"max":[2.48333335],"min":[0.0],"type":"SCALAR","name":"accessorAnimationInput"},{"bufferView":6,"byteOffset":304,"componentType":5126,"count":2,"type":"VEC4","name":"accessorAnimationRotations"},{"bufferView":4,"byteOffset":168,"componentType":5126,"count":22,"max":[2.4666667],"min":[0.05],"type":"SCALAR","name":"accessorAnimationInput"},{"bufferView":5,"byteOffset":252,"componentType":5126,"count":22,"type":"VEC3","name":"accessorAnimationPositions"},{"bufferView":4,"byteOffset":256,"componentType":5126,"count":22,"max":[2.4666667],"min":[0.05],"type":"SCALAR","name":"accessorAnimationInput"},{"bufferView":6,"byteOffset":336,"componentType":5126,"count":22,"type":"VEC4","name":"accessorAnimationRotations"},{"bufferView":4,"byteOffset":344,"componentType":5126,"count":2,"max":[2.48333335],"min":[0.0],"type":"SCALAR","name":"accessorAnimationInput"},{"bufferView":5,"byteOffset":516,"componentType":5126,"count":2,"type":"VEC3","name":"accessorAnimationPositions"},{"bufferView":4,"byteOffset":352,"componentType":5126,"count":2,"max":[2.48333335],"min":[0.0],"type":"SCALAR","name":"accessorAnimationInput"},{"bufferView":6,"byteOffset":688,"componentType":5126,"count":2,"type":"VEC4","name":"accessorAnimationRotations"}],"bufferViews":[{"buffer":0,"byteLength":152880,"name":"bufferViewScalar"},{"buffer":0,"byteOffset":152880,"byteLength":494880,"byteStride":12,"name":"bufferViewFloatVec3"},{"buffer":0,"byteOffset":647760,"byteLength":329920,"byteStride":16,"name":"bufferViewFloatVec4"},{"buffer":0,"byteOffset":977680,"byteLength":164960,"byteStride":8,"name":"bufferViewFloatVec2"},{"buffer":0,"byteOffset":1142640,"byteLength":360,"name":"bufferViewAnimationFloatScalar"},{"buffer":0,"byteOffset":1143000,"byteLength":540,"name":"bufferViewAnimationFloatVec3"},{"buffer":0,"byteOffset":1143540,"byteLength":720,"name":"bufferViewAnimationFloatVec4"}],"buffers":[{"uri":"sicBo.bin","byteLength":1144260}],"materials":[{"pbrMetallicRoughness":{"baseColorFactor":[0.0053,0.0824,0.10225,0.227272749],"metallicFactor":0.0,"roughnessFactor":0.201679826},"emissiveFactor":[0.0,0.0,0.0],"alphaMode":"BLEND","name":"glassMat"},{"pbrMetallicRoughness":{"baseColorFactor":[0.25,0.25,0.25,0.0],"metallicFactor":0.0,"roughnessFactor":0.450053632},"emissiveFactor":[0.0,0.0,0.0],"alphaMode":"BLEND","name":"fakeMat"},{"pbrMetallicRoughness":{"baseColorFactor":[0.25,0.25,0.25,1.0],"metallicFactor":0.0,"roughnessFactor":0.450053632},"emissiveFactor":[0.0,0.0,0.0],"alphaMode":"OPAQUE","name":"lambert1"},{"pbrMetallicRoughness":{"baseColorFactor":[0.5,0.5,0.5,1.0],"metallicFactor":0.0,"roughnessFactor":0.2581639},"emissiveFactor":[0.181818187,0.181818187,0.181818187],"alphaMode":"OPAQUE","name":"dicePintsMat"},{"pbrMetallicRoughness":{"baseColorFactor":[0.49025,0.0,0.0171,1.0],"metallicFactor":0.0,"roughnessFactor":0.241855934},"emissiveFactor":[0.101870127,0.0,0.00355324685],"alphaMode":"OPAQUE","name":"diceMat"},{"pbrMetallicRoughness":{"baseColorFactor":[1.0,1.0,1.0,1.0],"baseColorTexture":{"index":0,"texCoord":0},"metallicFactor":0.0,"roughnessFactor":0.450053632},"emissiveFactor":[0.0,0.0,0.0],"alphaMode":"BLEND","name":"shadowMat"},{"pbrMetallicRoughness":{"baseColorFactor":[1.0,1.0,1.0,1.0],"baseColorTexture":{"index":1,"texCoord":0},"metallicFactor":0.0,"roughnessFactor":0.201679826},"emissiveFactor":[0.0,0.0,0.0],"alphaMode":"OPAQUE","name":"pusherMat"},{"pbrMetallicRoughness":{"baseColorFactor":[1.0,1.0,1.0,1.0],"baseColorTexture":{"index":3,"texCoord":0},"metallicFactor":0.0,"roughnessFactor":0.225380808},"emissiveTexture":{"index":2,"texCoord":0},"emissiveFactor":[1.0,1.0,1.0],"alphaMode":"OPAQUE","name":"frameMat"},{"pbrMetallicRoughness":{"baseColorFactor":[0.3961039,0.271890253,0.0,1.0],"metallicFactor":0.0,"roughnessFactor":0.208839417},"emissiveFactor":[0.0,0.0,0.0],"alphaMode":"OPAQUE","name":"goldenMat"}],"textures":[{"sampler":0,"source":0,"name":"shadowMat_baseColor.png"},{"sampler":1,"source":1,"name":"pusherMat_baseColor.jpg"},{"sampler":2,"source":2,"name":"frameMat_emissive.jpg"},{"sampler":3,"source":3,"name":"frameMat_baseColor.jpg"}],"images":[{"uri":"shadowMat_baseColor.png"},{"uri":"pusherMat_baseColor.jpg"},{"uri":"frameMat_emissive.jpg"},{"uri":"frameMat_baseColor.jpg"}],"samplers":[{"magFilter":9729,"minFilter":9987,"wrapS":10497,"wrapT":10497},{"magFilter":9729,"minFilter":9987,"wrapS":10497,"wrapT":10497},{"magFilter":9729,"minFilter":9987,"wrapS":10497,"wrapT":10497},{"magFilter":9729,"minFilter":9987,"wrapS":10497,"wrapT":10497}],"animations":[{"channels":[{"sampler":0,"target":{"node":3,"path":"translation"}},{"sampler":1,"target":{"node":3,"path":"rotation"}},{"sampler":2,"target":{"node":4,"path":"translation"}},{"sampler":3,"target":{"node":4,"path":"rotation"}},{"sampler":4,"target":{"node":11,"path":"translation"}},{"sampler":5,"target":{"node":11,"path":"rotation"}},{"sampler":6,"target":{"node":12,"path":"translation"}},{"sampler":7,"target":{"node":12,"path":"rotation"}}],"samplers":[{"input":65,"interpolation":"LINEAR","output":66},{"input":67,"interpolation":"LINEAR","output":68},{"input":69,"interpolation":"LINEAR","output":70},{"input":71,"interpolation":"LINEAR","output":72},{"input":73,"interpolation":"LINEAR","output":74},{"input":75,"interpolation":"LINEAR","output":76},{"input":77,"interpolation":"LINEAR","output":78},{"input":79,"interpolation":"LINEAR","output":80}],"name":"pushDices"}]}