{"asset":{"version":"2.0","generator":"babylon.js glTF exporter for maya 2018 v20190722.2"},"scene":0,"scenes":[{"nodes":[0],"extensions":{}}],"nodes":[{"children":[1,15],"translation":[0.0,0.0,0.0],"rotation":[0.0,0.0,0.0,1.0],"scale":[20.0,20.0,20.0],"name":"root"},{"children":[2,3,7,8,9,10,11],"translation":[0.0,0.0,0.0],"rotation":[0.0,0.0,0.0,1.0],"scale":[0.05,0.05,0.05],"name":"main"},{"mesh":0,"translation":[0.0,222.3,0.0],"rotation":[0.0,0.0,0.0,1.0],"scale":[25.0,25.0,25.0],"name":"glass"},{"children":[4],"translation":[50.0,15.0,5.684342E-14],"rotation":[0.0,0.0,0.0,1.0],"scale":[1.0,1.0,1.0],"name":"DICE_1"},{"children":[5,6],"mesh":1,"translation":[0.095243454,42.2685623,-0.0409377143],"rotation":[0.0,0.0,0.0,1.0],"scale":[8.0,8.0,8.0],"name":"SELECT_FACE_1"},{"mesh":2,"translation":[-0.0117877629,-5.2838583,0.005177571],"rotation":[0.0,0.0,0.0,1.0],"scale":[0.125,0.125,0.125],"name":"pointsDice1"},{"mesh":3,"translation":[-0.0119054317,-5.28357029,0.00511721428],"rotation":[0.0,0.0,0.0,1.0],"scale":[0.125,0.125,0.125],"name":"dice1"},{"mesh":4,"translation":[0.0,4.0,0.0],"rotation":[0.0,0.0,0.0,1.0],"scale":[7.56288052,1.96828473,7.56288052],"name":"shadow"},{"mesh":5,"translation":[0.0,12.9697638,6.77626358E-21],"rotation":[0.0,0.0,0.0,1.0],"scale":[1.80836773,0.0222278554,1.80836773],"name":"Pusher"},{"mesh":6,"translation":[0.0,10.0,0.0],"rotation":[0.0,0.0,0.0,1.0],"scale":[1.18935883,1.0,1.18935883],"name":"frame"},{"mesh":7,"translation":[0.0,0.0,0.0],"rotation":[0.0,0.0,0.0,1.0],"scale":[1.0,1.0,1.0],"name":"goldFrame"},{"children":[12],"translation":[-50.0,15.0,0.0],"rotation":[0.0,0.0,0.0,1.0],"scale":[1.0,1.0,1.0],"name":"DICE_2"},{"children":[13,14],"mesh":8,"translation":[0.102000237,42.2574844,4.038903E-05],"rotation":[0.0,0.0,0.0,1.0],"scale":[20.0,20.0,20.0],"name":"SELECT_FACE_2"},{"mesh":9,"translation":[-0.005052944,-2.11298943,2.21233277E-05],"rotation":[0.0,0.0,0.0,1.0],"scale":[0.05,0.05,0.05],"name":"pointsDice2"},{"mesh":10,"translation":[-0.005100012,-2.11287427,-2.01945159E-06],"rotation":[0.0,0.0,0.0,1.0],"scale":[0.05,0.05,0.05],"name":"dice2"},{"camera":0,"translation":[-418.558,10.0,942.2143],"rotation":[0.119501844,-0.214812085,0.0264929216,0.9689547],"scale":[1.0,1.0,1.0],"name":"persp1"}],"cameras":[{"perspective":{"yfov":0.6605947,"zfar":10000.0,"znear":0.1},"type":"perspective","name":"persp1"}],"meshes":[{"primitives":[{"attributes":{"POSITION":1,"NORMAL":2,"TANGENT":3,"TEXCOORD_0":4},"indices":0,"mode":4,"material":0}],"name":"glass"},{"primitives":[{"attributes":{"POSITION":6,"NORMAL":7,"TANGENT":8,"TEXCOORD_0":9},"indices":5,"mode":4,"material":1}],"name":"SELECT_FACE_1"},{"primitives":[{"attributes":{"POSITION":11,"NORMAL":12,"TANGENT":13,"TEXCOORD_0":14},"indices":10,"mode":4,"material":2}],"name":"pointsDice1"},{"primitives":[{"attributes":{"POSITION":16,"NORMAL":17,"TANGENT":18,"TEXCOORD_0":19},"indices":15,"mode":4,"material":3}],"name":"dice1"},{"primitives":[{"attributes":{"POSITION":21,"NORMAL":22,"TANGENT":23,"TEXCOORD_0":24},"indices":20,"mode":4,"material":4}],"name":"shadow"},{"primitives":[{"attributes":{"POSITION":26,"NORMAL":27,"TANGENT":28,"TEXCOORD_0":29},"indices":25,"mode":4,"material":5}],"name":"Pusher"},{"primitives":[{"attributes":{"POSITION":31,"NORMAL":32,"TANGENT":33,"TEXCOORD_0":34},"indices":30,"mode":4,"material":6}],"name":"frame"},{"primitives":[{"attributes":{"POSITION":36,"NORMAL":37,"TANGENT":38,"TEXCOORD_0":39},"indices":35,"mode":4,"material":7}],"name":"goldFrame"},{"primitives":[{"attributes":{"POSITION":41,"NORMAL":42,"TANGENT":43,"TEXCOORD_0":44},"indices":40,"mode":4,"material":1}],"name":"SELECT_FACE_2"},{"primitives":[{"attributes":{"POSITION":46,"NORMAL":47,"TANGENT":48,"TEXCOORD_0":49},"indices":45,"mode":4,"material":2}],"name":"pointsDice2"},{"primitives":[{"attributes":{"POSITION":51,"NORMAL":52,"TANGENT":53,"TEXCOORD_0":54},"indices":50,"mode":4,"material":3}],"name":"dice2"}],"accessors":[{"bufferView":0,"componentType":5123,"count":5280,"type":"SCALAR","name":"accessorIndices"},{"bufferView":1,"componentType":5126,"count":1220,"max":[7.0,7.0,7.000002],"min":[-7.00000238,-8.404102,-7.00000429],"type":"VEC3","name":"accessorPositions"},{"bufferView":1,"byteOffset":14640,"componentType":5126,"count":1220,"type":"VEC3","name":"accessorNormals"},{"bufferView":2,"componentType":5126,"count":1220,"type":"VEC4","name":"accessorTangents"},{"bufferView":3,"componentType":5126,"count":1220,"type":"VEC2","name":"accessorUVs"},{"bufferView":0,"byteOffset":10560,"componentType":5123,"count":36,"type":"SCALAR","name":"accessorIndices"},{"bufferView":1,"byteOffset":29280,"componentType":5126,"count":24,"max":[0.5,0.5,0.5],"min":[-0.5,-0.5,-0.500000238],"type":"VEC3","name":"accessorPositions"},{"bufferView":1,"byteOffset":29568,"componentType":5126,"count":24,"type":"VEC3","name":"accessorNormals"},{"bufferView":2,"byteOffset":19520,"componentType":5126,"count":24,"type":"VEC4","name":"accessorTangents"},{"bufferView":3,"byteOffset":9760,"componentType":5126,"count":24,"type":"VEC2","name":"accessorUVs"},{"bufferView":0,"byteOffset":10632,"componentType":5123,"count":9072,"type":"SCALAR","name":"accessorIndices"},{"bufferView":1,"byteOffset":29856,"componentType":5126,"count":3391,"max":[42.5746574,84.97339,42.7356],"min":[-42.550396,-0.492705852,-42.7761154],"type":"VEC3","name":"accessorPositions"},{"bufferView":1,"byteOffset":70548,"componentType":5126,"count":3391,"type":"VEC3","name":"accessorNormals"},{"bufferView":2,"byteOffset":19904,"componentType":5126,"count":3391,"type":"VEC4","name":"accessorTangents"},{"bufferView":3,"byteOffset":9952,"componentType":5126,"count":3391,"type":"VEC2","name":"accessorUVs"},{"bufferView":0,"byteOffset":28776,"componentType":5123,"count":12672,"type":"SCALAR","name":"accessorIndices"},{"bufferView":1,"byteOffset":111240,"componentType":5126,"count":3882,"max":[45.56744,87.7406845,45.43119],"min":[-45.3769455,-3.20358276,-45.5131],"type":"VEC3","name":"accessorPositions"},{"bufferView":1,"byteOffset":157824,"componentType":5126,"count":3882,"type":"VEC3","name":"accessorNormals"},{"bufferView":2,"byteOffset":74160,"componentType":5126,"count":3882,"type":"VEC4","name":"accessorTangents"},{"bufferView":3,"byteOffset":37080,"componentType":5126,"count":3882,"type":"VEC2","name":"accessorUVs"},{"bufferView":0,"byteOffset":54120,"componentType":5123,"count":600,"type":"SCALAR","name":"accessorIndices"},{"bufferView":1,"byteOffset":204408,"componentType":5126,"count":121,"max":[50.0,1.52587891E-05,50.0],"min":[-50.0,1.52587891E-05,-50.0],"type":"VEC3","name":"accessorPositions"},{"bufferView":1,"byteOffset":205860,"componentType":5126,"count":121,"type":"VEC3","name":"accessorNormals"},{"bufferView":2,"byteOffset":136272,"componentType":5126,"count":121,"type":"VEC4","name":"accessorTangents"},{"bufferView":3,"byteOffset":68136,"componentType":5126,"count":121,"type":"VEC2","name":"accessorUVs"},{"bufferView":0,"byteOffset":55320,"componentType":5123,"count":720,"type":"SCALAR","name":"accessorIndices"},{"bufferView":1,"byteOffset":207312,"componentType":5126,"count":244,"max":[100.0,100.000046,100.000015],"min":[-100.000038,-100.0,-100.000061],"type":"VEC3","name":"accessorPositions"},{"bufferView":1,"byteOffset":210240,"componentType":5126,"count":244,"type":"VEC3","name":"accessorNormals"},{"bufferView":2,"byteOffset":138208,"componentType":5126,"count":244,"type":"VEC4","name":"accessorTangents"},{"bufferView":3,"byteOffset":69104,"componentType":5126,"count":244,"type":"VEC2","name":"accessorUVs"},{"bufferView":0,"byteOffset":56760,"componentType":5123,"count":5952,"type":"SCALAR","name":"accessorIndices"},{"bufferView":1,"byteOffset":213168,"componentType":5126,"count":992,"max":[276.695374,6.25,270.432251],"min":[-275.91626,-6.25,-259.49115],"type":"VEC3","name":"accessorPositions"},{"bufferView":1,"byteOffset":225072,"componentType":5126,"count":992,"type":"VEC3","name":"accessorNormals"},{"bufferView":2,"byteOffset":142112,"componentType":5126,"count":992,"type":"VEC4","name":"accessorTangents"},{"bufferView":3,"byteOffset":71056,"componentType":5126,"count":992,"type":"VEC2","name":"accessorUVs"},{"bufferView":0,"byteOffset":68664,"componentType":5123,"count":20256,"type":"SCALAR","name":"accessorIndices"},{"bufferView":1,"byteOffset":236976,"componentType":5126,"count":12296,"max":[348.4554,51.3066559,339.544037],"min":[-347.593475,4.899971,-328.3982],"type":"VEC3","name":"accessorPositions"},{"bufferView":1,"byteOffset":384528,"componentType":5126,"count":12296,"type":"VEC3","name":"accessorNormals"},{"bufferView":2,"byteOffset":157984,"componentType":5126,"count":12296,"type":"VEC4","name":"accessorTangents"},{"bufferView":3,"byteOffset":78992,"componentType":5126,"count":12296,"type":"VEC2","name":"accessorUVs"},{"bufferView":0,"byteOffset":109176,"componentType":5123,"count":36,"type":"SCALAR","name":"accessorIndices"},{"bufferView":1,"byteOffset":532080,"componentType":5126,"count":24,"max":[0.5,0.5,0.5],"min":[-0.5,-0.5,-0.5],"type":"VEC3","name":"accessorPositions"},{"bufferView":1,"byteOffset":532368,"componentType":5126,"count":24,"type":"VEC3","name":"accessorNormals"},{"bufferView":2,"byteOffset":354720,"componentType":5126,"count":24,"type":"VEC4","name":"accessorTangents"},{"bufferView":3,"byteOffset":177360,"componentType":5126,"count":24,"type":"VEC2","name":"accessorUVs"},{"bufferView":0,"byteOffset":109248,"componentType":5123,"count":9072,"type":"SCALAR","name":"accessorIndices"},{"bufferView":1,"byteOffset":532656,"componentType":5126,"count":3391,"max":[42.5746574,84.97339,42.7356],"min":[-42.550396,-0.492705852,-42.7761154],"type":"VEC3","name":"accessorPositions"},{"bufferView":1,"byteOffset":573348,"componentType":5126,"count":3391,"type":"VEC3","name":"accessorNormals"},{"bufferView":2,"byteOffset":355104,"componentType":5126,"count":3391,"type":"VEC4","name":"accessorTangents"},{"bufferView":3,"byteOffset":177552,"componentType":5126,"count":3391,"type":"VEC2","name":"accessorUVs"},{"bufferView":0,"byteOffset":127392,"componentType":5123,"count":12672,"type":"SCALAR","name":"accessorIndices"},{"bufferView":1,"byteOffset":614040,"componentType":5126,"count":3882,"max":[45.56744,87.7406845,45.43119],"min":[-45.3769455,-3.20358276,-45.5131],"type":"VEC3","name":"accessorPositions"},{"bufferView":1,"byteOffset":660624,"componentType":5126,"count":3882,"type":"VEC3","name":"accessorNormals"},{"bufferView":2,"byteOffset":409360,"componentType":5126,"count":3882,"type":"VEC4","name":"accessorTangents"},{"bufferView":3,"byteOffset":204680,"componentType":5126,"count":3882,"type":"VEC2","name":"accessorUVs"},{"bufferView":4,"componentType":5126,"count":2,"max":[0.316666663],"min":[0.0],"type":"SCALAR","name":"accessorAnimationInput"},{"bufferView":5,"componentType":5126,"count":2,"type":"VEC3","name":"accessorAnimationPositions"},{"bufferView":4,"byteOffset":8,"componentType":5126,"count":0,"max":[-3.40282347E+38],"min":[3.40282347E+38],"type":"SCALAR","name":"accessorAnimationInput"},{"bufferView":4,"byteOffset":8,"componentType":5126,"count":0,"max":[-3.40282347E+38],"min":[3.40282347E+38],"type":"SCALAR","name":"accessorAnimationInput"},{"bufferView":4,"byteOffset":8,"componentType":5126,"count":2,"max":[0.35],"min":[0.0],"type":"SCALAR","name":"accessorAnimationInput"},{"bufferView":5,"byteOffset":24,"componentType":5126,"count":2,"type":"VEC3","name":"accessorAnimationPositions"},{"bufferView":4,"byteOffset":16,"componentType":5126,"count":0,"max":[-3.40282347E+38],"min":[3.40282347E+38],"type":"SCALAR","name":"accessorAnimationInput"},{"bufferView":4,"byteOffset":16,"componentType":5126,"count":0,"max":[-3.40282347E+38],"min":[3.40282347E+38],"type":"SCALAR","name":"accessorAnimationInput"},{"bufferView":4,"byteOffset":16,"componentType":5126,"count":0,"max":[-3.40282347E+38],"min":[3.40282347E+38],"type":"SCALAR","name":"accessorAnimationInput"},{"bufferView":4,"byteOffset":16,"componentType":5126,"count":0,"max":[-3.40282347E+38],"min":[3.40282347E+38],"type":"SCALAR","name":"accessorAnimationInput"},{"bufferView":4,"byteOffset":16,"componentType":5126,"count":2,"max":[0.483333319],"min":[0.0],"type":"SCALAR","name":"accessorAnimationInput"},{"bufferView":5,"byteOffset":48,"componentType":5126,"count":2,"type":"VEC3","name":"accessorAnimationPositions"},{"bufferView":4,"byteOffset":24,"componentType":5126,"count":2,"max":[0.483333319],"min":[0.0],"type":"SCALAR","name":"accessorAnimationInput"},{"bufferView":6,"componentType":5126,"count":2,"type":"VEC4","name":"accessorAnimationRotations"},{"bufferView":4,"byteOffset":32,"componentType":5126,"count":0,"max":[-3.40282347E+38],"min":[3.40282347E+38],"type":"SCALAR","name":"accessorAnimationInput"},{"bufferView":4,"byteOffset":32,"componentType":5126,"count":0,"max":[-3.40282347E+38],"min":[3.40282347E+38],"type":"SCALAR","name":"accessorAnimationInput"},{"bufferView":4,"byteOffset":32,"componentType":5126,"count":2,"max":[0.233333334],"min":[0.0],"type":"SCALAR","name":"accessorAnimationInput"},{"bufferView":5,"byteOffset":72,"componentType":5126,"count":2,"type":"VEC3","name":"accessorAnimationPositions"},{"bufferView":4,"byteOffset":40,"componentType":5126,"count":2,"max":[0.233333334],"min":[0.0],"type":"SCALAR","name":"accessorAnimationInput"},{"bufferView":6,"byteOffset":32,"componentType":5126,"count":2,"type":"VEC4","name":"accessorAnimationRotations"}],"bufferViews":[{"buffer":0,"byteLength":152736,"name":"bufferViewScalar"},{"buffer":0,"byteOffset":152736,"byteLength":707208,"byteStride":12,"name":"bufferViewFloatVec3"},{"buffer":0,"byteOffset":859944,"byteLength":471472,"byteStride":16,"name":"bufferViewFloatVec4"},{"buffer":0,"byteOffset":1331416,"byteLength":235736,"byteStride":8,"name":"bufferViewFloatVec2"},{"buffer":0,"byteOffset":1567152,"byteLength":48,"name":"bufferViewAnimationFloatScalar"},{"buffer":0,"byteOffset":1567200,"byteLength":96,"name":"bufferViewAnimationFloatVec3"},{"buffer":0,"byteOffset":1567296,"byteLength":64,"name":"bufferViewAnimationFloatVec4"}],"buffers":[{"uri":"sicBo.bin","byteLength":1567360}],"materials":[{"pbrMetallicRoughness":{"baseColorFactor":[0.0053,0.0824,0.10225,0.227272749],"metallicFactor":0.0,"roughnessFactor":0.201679826},"emissiveFactor":[0.0,0.0,0.0],"alphaMode":"BLEND","name":"glassMat"},{"pbrMetallicRoughness":{"baseColorFactor":[0.25,0.25,0.25,1.0],"metallicFactor":0.0,"roughnessFactor":0.450053632},"emissiveFactor":[0.0,0.0,0.0],"alphaMode":"OPAQUE","name":"lambert1"},{"pbrMetallicRoughness":{"baseColorFactor":[0.5,0.5,0.5,1.0],"metallicFactor":0.0,"roughnessFactor":0.2581639},"emissiveFactor":[0.181818187,0.181818187,0.181818187],"alphaMode":"OPAQUE","name":"dicePintsMat"},{"pbrMetallicRoughness":{"baseColorFactor":[0.49025,0.0,0.0171,1.0],"metallicFactor":0.0,"roughnessFactor":0.241855934},"emissiveFactor":[0.101870127,0.0,0.00355324685],"alphaMode":"OPAQUE","name":"diceMat"},{"pbrMetallicRoughness":{"baseColorFactor":[1.0,1.0,1.0,1.0],"baseColorTexture":{"index":0,"texCoord":0},"metallicFactor":0.0,"roughnessFactor":0.450053632},"emissiveFactor":[0.0,0.0,0.0],"alphaMode":"BLEND","name":"shadowMat"},{"pbrMetallicRoughness":{"baseColorFactor":[0.0236006528,0.1485,0.000890997355,1.0],"metallicFactor":0.0,"roughnessFactor":0.201679826},"emissiveFactor":[0.0,0.0,0.0],"alphaMode":"OPAQUE","name":"pusher"},{"pbrMetallicRoughness":{"baseColorFactor":[1.0,1.0,1.0,1.0],"baseColorTexture":{"index":2,"texCoord":0},"metallicFactor":0.0,"roughnessFactor":0.225380808},"emissiveTexture":{"index":1,"texCoord":0},"emissiveFactor":[1.0,1.0,1.0],"alphaMode":"OPAQUE","name":"frameMat"},{"pbrMetallicRoughness":{"baseColorFactor":[0.3961039,0.271890253,0.0,1.0],"metallicFactor":0.0,"roughnessFactor":0.208839417},"emissiveFactor":[0.0,0.0,0.0],"alphaMode":"OPAQUE","name":"goldenMat"}],"textures":[{"sampler":0,"source":0,"name":"shadowMat_baseColor.png"},{"sampler":1,"source":1,"name":"frameMat_emissive.jpg"},{"sampler":2,"source":2,"name":"frameMat_baseColor.jpg"}],"images":[{"uri":"shadowMat_baseColor.png"},{"uri":"frameMat_emissive.jpg"},{"uri":"frameMat_baseColor.jpg"}],"samplers":[{"magFilter":9729,"minFilter":9987,"wrapS":10497,"wrapT":10497},{"magFilter":9729,"minFilter":9987,"wrapS":10497,"wrapT":10497},{"magFilter":9729,"minFilter":9987,"wrapS":10497,"wrapT":10497}],"animations":[{"channels":[{"sampler":0,"target":{"node":3,"path":"translation"}},{"sampler":1,"target":{"node":11,"path":"translation"}}],"samplers":[{"input":55,"interpolation":"LINEAR","output":56},{"input":59,"interpolation":"LINEAR","output":60}],"name":"pushDices"},{"channels":[{"sampler":0,"target":{"node":4,"path":"translation"}},{"sampler":1,"target":{"node":4,"path":"rotation"}},{"sampler":2,"target":{"node":12,"path":"translation"}},{"sampler":3,"target":{"node":12,"path":"rotation"}}],"samplers":[{"input":65,"interpolation":"LINEAR","output":66},{"input":67,"interpolation":"LINEAR","output":68},{"input":71,"interpolation":"LINEAR","output":72},{"input":73,"interpolation":"LINEAR","output":74}],"name":"selectFaces"}]}